<?xml version="1.0" encoding="UTF-8" standalone="no"?>
<!-- Created with Inkscape (http://www.inkscape.org/) -->

<svg
   xmlns:dc="http://purl.org/dc/elements/1.1/"
   xmlns:cc="http://creativecommons.org/ns#"
   xmlns:rdf="http://www.w3.org/1999/02/22-rdf-syntax-ns#"
   xmlns:svg="http://www.w3.org/2000/svg"
   xmlns="http://www.w3.org/2000/svg"
   xmlns:sodipodi="http://sodipodi.sourceforge.net/DTD/sodipodi-0.dtd"
   xmlns:inkscape="http://www.inkscape.org/namespaces/inkscape"
   width="30mm"
   height="30mm"
   viewBox="0 0 30 30"
   version="1.1"
   id="svg8"
   inkscape:version="0.92.4 (5da689c313, 2019-01-14)"
   sodipodi:docname="approve-icon.svg">
  <defs
     id="defs2" />
  <sodipodi:namedview
     id="base"
     pagecolor="#ffffff"
     bordercolor="#666666"
     borderopacity="1.0"
     inkscape:pageopacity="0.0"
     inkscape:pageshadow="2"
     inkscape:zoom="0.35"
     inkscape:cx="205.88134"
     inkscape:cy="27.828944"
     inkscape:document-units="mm"
     inkscape:current-layer="layer1"
     showgrid="false"
     inkscape:window-width="1920"
     inkscape:window-height="1017"
     inkscape:window-x="-8"
     inkscape:window-y="-8"
     inkscape:window-maximized="1" />
  <metadata
     id="metadata5">
    <rdf:RDF>
      <cc:Work
         rdf:about="">
        <dc:format>image/svg+xml</dc:format>
        <dc:type
           rdf:resource="http://purl.org/dc/dcmitype/StillImage" />
        <dc:title></dc:title>
      </cc:Work>
    </rdf:RDF>
  </metadata>
  <g
     inkscape:label="Layer 1"
     inkscape:groupmode="layer"
     id="layer1"
     transform="translate(81.30908,-126.19641)">
    <g
       id="g4724"
       transform="matrix(0.05859375,0,0,0.05859375,-81.30908,126.19641)">
      <path
         id="path4710"
         d="M 512,58.667969 C 512,26.304688 485.69531,0 453.33203,0 H 58.667969 C 26.304688,0 0,26.304688 0,58.667969 V 453.33203 C 0,485.69531 26.304688,512 58.667969,512 H 453.33203 C 485.69531,512 512,485.69531 512,453.33203 Z m 0,0"
         inkscape:connector-curvature="0"
         style="fill:#4caf50" />
      <path
         id="path4712"
         d="m 385.75,171.58594 c 8.33984,8.33984 8.33984,21.82031 0,30.16406 L 247.08203,340.41406 c -4.16016,4.16016 -9.62109,6.25391 -15.08203,6.25391 -5.46094,0 -10.92188,-2.09375 -15.08203,-6.25391 l -69.33203,-69.33203 c -8.34375,-8.33984 -8.34375,-21.82422 0,-30.16406 8.33984,-8.34375 21.82031,-8.34375 30.16406,0 l 54.25,54.25 123.58594,-123.58203 c 8.33984,-8.34375 21.82031,-8.34375 30.16406,0 z m 0,0"
         inkscape:connector-curvature="0"
         style="fill:#fafafa" />
    </g>
  </g>
</svg>
