<?xml version="1.0" encoding="UTF-8" standalone="no"?>
<!-- Created with Inkscape (http://www.inkscape.org/) -->

<svg
   xmlns:dc="http://purl.org/dc/elements/1.1/"
   xmlns:cc="http://creativecommons.org/ns#"
   xmlns:rdf="http://www.w3.org/1999/02/22-rdf-syntax-ns#"
   xmlns:svg="http://www.w3.org/2000/svg"
   xmlns="http://www.w3.org/2000/svg"
   xmlns:sodipodi="http://sodipodi.sourceforge.net/DTD/sodipodi-0.dtd"
   xmlns:inkscape="http://www.inkscape.org/namespaces/inkscape"
   width="135.46677mm"
   height="90.311089mm"
   viewBox="0 0 135.46677 90.31109"
   version="1.1"
   id="svg8"
   inkscape:version="0.92.4 (5da689c313, 2019-01-14)"
   sodipodi:docname="arrow.svg">
  <defs
     id="defs2" />
  <sodipodi:namedview
     id="base"
     pagecolor="#ffffff"
     bordercolor="#666666"
     borderopacity="1.0"
     inkscape:pageopacity="0.0"
     inkscape:pageshadow="2"
     inkscape:zoom="0.35"
     inkscape:cx="203.83203"
     inkscape:cy="115.8397"
     inkscape:document-units="mm"
     inkscape:current-layer="layer1"
     showgrid="false"
     inkscape:window-width="1920"
     inkscape:window-height="1017"
     inkscape:window-x="-8"
     inkscape:window-y="-8"
     inkscape:window-maximized="1" />
  <metadata
     id="metadata5">
    <rdf:RDF>
      <cc:Work
         rdf:about="">
        <dc:format>image/svg+xml</dc:format>
        <dc:type
           rdf:resource="http://purl.org/dc/dcmitype/StillImage" />
        <dc:title></dc:title>
      </cc:Work>
    </rdf:RDF>
  </metadata>
  <g
     inkscape:label="Layer 1"
     inkscape:groupmode="layer"
     id="layer1"
     transform="translate(-87.538363,-161.06257)">
    <g
       id="g1335"
       transform="matrix(0.26458333,0,0,0.26458333,87.538363,138.48495)">
      <g
         id="g1278">
	<g
   id="g1276">
		<path
   id="path1274"
   d="m 508.875,248.458 -160,-160 c -4.167,-4.167 -10.917,-4.167 -15.083,0 -4.167,4.167 -4.167,10.917 0,15.083 L 475.584,245.333 H 10.667 C 4.771,245.333 0,250.104 0,256 c 0,5.896 4.771,10.667 10.667,10.667 H 475.584 L 333.792,408.458 c -4.167,4.167 -4.167,10.917 0,15.083 2.083,2.083 4.813,3.125 7.542,3.125 2.729,0 5.458,-1.042 7.542,-3.125 l 160,-160 c 4.166,-4.166 4.166,-10.916 -10e-4,-15.083 z"
   inkscape:connector-curvature="0" />

	</g>

</g>
      <g
         id="g1280">
</g>
      <g
         id="g1282">
</g>
      <g
         id="g1284">
</g>
      <g
         id="g1286">
</g>
      <g
         id="g1288">
</g>
      <g
         id="g1290">
</g>
      <g
         id="g1292">
</g>
      <g
         id="g1294">
</g>
      <g
         id="g1296">
</g>
      <g
         id="g1298">
</g>
      <g
         id="g1300">
</g>
      <g
         id="g1302">
</g>
      <g
         id="g1304">
</g>
      <g
         id="g1306">
</g>
      <g
         id="g1308">
</g>
    </g>
  </g>
</svg>
