<?xml version="1.0" encoding="UTF-8" standalone="no"?>
<!-- Created with Inkscape (http://www.inkscape.org/) -->

<svg
   xmlns:dc="http://purl.org/dc/elements/1.1/"
   xmlns:cc="http://creativecommons.org/ns#"
   xmlns:rdf="http://www.w3.org/1999/02/22-rdf-syntax-ns#"
   xmlns:svg="http://www.w3.org/2000/svg"
   xmlns="http://www.w3.org/2000/svg"
   xmlns:sodipodi="http://sodipodi.sourceforge.net/DTD/sodipodi-0.dtd"
   xmlns:inkscape="http://www.inkscape.org/namespaces/inkscape"
   width="29.999998mm"
   height="30.000002mm"
   viewBox="0 0 29.999998 30.000002"
   version="1.1"
   id="svg8"
   inkscape:version="0.92.4 (5da689c313, 2019-01-14)"
   sodipodi:docname="cancel-icon.svg">
  <defs
     id="defs2" />
  <sodipodi:namedview
     id="base"
     pagecolor="#ffffff"
     bordercolor="#666666"
     borderopacity="1.0"
     inkscape:pageopacity="0.0"
     inkscape:pageshadow="2"
     inkscape:zoom="0.35"
     inkscape:cx="-72.594864"
     inkscape:cy="369.35273"
     inkscape:document-units="mm"
     inkscape:current-layer="layer1"
     showgrid="false"
     inkscape:window-width="1920"
     inkscape:window-height="1017"
     inkscape:window-x="-8"
     inkscape:window-y="-8"
     inkscape:window-maximized="1" />
  <metadata
     id="metadata5">
    <rdf:RDF>
      <cc:Work
         rdf:about="">
        <dc:format>image/svg+xml</dc:format>
        <dc:type
           rdf:resource="http://purl.org/dc/dcmitype/StillImage" />
        <dc:title></dc:title>
      </cc:Work>
    </rdf:RDF>
  </metadata>
  <g
     inkscape:label="Layer 1"
     inkscape:groupmode="layer"
     id="layer1"
     transform="translate(7.6289186,-216.55791)">
    <g
       id="g4708"
       transform="matrix(0.09976223,0,0,0.09441296,-8.478793,216.55791)">
      <g
         id="g4651">
	<path
   id="path4647"
   d="m 221.519,96.233 c -7.811,-7.811 -20.475,-7.811 -28.285,0 L 158.877,130.59 124.52,96.233 c -7.811,-7.811 -20.475,-7.811 -28.285,0 -7.81,7.811 -7.81,20.475 0,28.285 l 34.357,34.357 -34.357,34.357 c -7.81,7.811 -7.81,20.475 0,28.285 7.809,7.809 20.474,7.811 28.285,0 l 34.357,-34.357 34.357,34.357 c 7.809,7.809 20.474,7.811 28.285,0 7.81,-7.811 7.81,-20.475 0,-28.285 l -34.357,-34.357 34.357,-34.357 c 7.81,-7.81 7.81,-20.474 0,-28.285 z"
   inkscape:connector-curvature="0" />

	<path
   id="path4649"
   d="M 286.527,0 H 31.225 C 18.685,0 8.519,10.166 8.519,22.707 v 272.339 c 0,12.54 10.166,22.707 22.707,22.707 h 255.301 c 12.54,0 22.707,-10.166 22.707,-22.707 V 22.707 C 309.233,10.166 299.067,0 286.527,0 Z M 158.876,274.646 c -63.985,0 -115.77,-51.778 -115.77,-115.77 0,-63.985 51.778,-115.77 115.77,-115.77 63.986,0 115.77,51.779 115.77,115.77 0,63.986 -51.779,115.77 -115.77,115.77 z"
   inkscape:connector-curvature="0" />

</g>
      <g
         id="g4653">
</g>
      <g
         id="g4655">
</g>
      <g
         id="g4657">
</g>
      <g
         id="g4659">
</g>
      <g
         id="g4661">
</g>
      <g
         id="g4663">
</g>
      <g
         id="g4665">
</g>
      <g
         id="g4667">
</g>
      <g
         id="g4669">
</g>
      <g
         id="g4671">
</g>
      <g
         id="g4673">
</g>
      <g
         id="g4675">
</g>
      <g
         id="g4677">
</g>
      <g
         id="g4679">
</g>
      <g
         id="g4681">
</g>
    </g>
  </g>
</svg>
