<?xml version="1.0" encoding="UTF-8" standalone="no"?>
<svg
   xmlns:dc="http://purl.org/dc/elements/1.1/"
   xmlns:cc="http://creativecommons.org/ns#"
   xmlns:rdf="http://www.w3.org/1999/02/22-rdf-syntax-ns#"
   xmlns:svg="http://www.w3.org/2000/svg"
   xmlns="http://www.w3.org/2000/svg"
   id="svg8"
   version="1.1"
   viewBox="0 0 180.62188 158.74997"
   height="158.74997mm"
   width="180.62187mm">
  <defs
     id="defs2" />
  <metadata
     id="metadata5">
    <rdf:RDF>
      <cc:Work
         rdf:about="">
        <dc:format>image/svg+xml</dc:format>
        <dc:type
           rdf:resource="http://purl.org/dc/dcmitype/StillImage" />
        <dc:title></dc:title>
      </cc:Work>
    </rdf:RDF>
  </metadata>
  <g
     transform="translate(-62.86802,-137.25571)"
     id="layer1">
    <path
       id="path4682"
       d=""
       style="fill:#000000;stroke-width:1.47733819" />
    <path
       id="path4680"
       d=""
       style="fill:#000000;stroke-width:1.47733819" />
    <path
       id="path4678"
       d=""
       style="fill:#000000;stroke-width:1.47733819" />
    <path
       id="path4676"
       d=""
       style="fill:#000000;stroke-width:1.47733819" />
    <path
       id="path4674"
       d=""
       style="fill:#000000;stroke-width:1.47733819" />
    <path
       id="path4668"
       d=""
       style="fill:#000000;stroke-width:1.47733819" />
    <path
       id="path4652"
       d=""
       style="fill:#000000;stroke-width:1.47733819" />
    <path
       id="path4642"
       d=""
       style="fill:#000000;stroke-width:1.47733819" />
    <path
       id="path4611"
       d=""
       style="fill:#000000;stroke-width:1.47733819" />
    <path
       id="path4609"
       d=""
       style="fill:#000000;stroke-width:1.47733819" />
    <path
       id="path4607"
       d=""
       style="fill:#000000;stroke-width:1.47733819" />
    <path
       id="path4605"
       d=""
       style="fill:#000000;stroke-width:1.47733819" />
    <path
       id="path4603"
       d=""
       style="fill:#000000;stroke-width:1.47733819" />
    <path
       id="path4597"
       d=""
       style="fill:#000000;stroke-width:1.47733819" />
    <path
       id="path4595"
       d=""
       style="fill:#000000;stroke-width:1.47733819" />
    <path
       id="path4593"
       d=""
       style="fill:#000000;stroke-width:1.47733819" />
    <path
       id="path4591"
       d=""
       style="fill:#000000;stroke-width:1.47733819" />
    <path
       id="path4589"
       d=""
       style="fill:#000000;stroke-width:1.47733819" />
    <path
       id="path4587"
       d=""
       style="fill:#000000;stroke-width:1.47733819" />
    <path
       id="path4583"
       d=""
       style="fill:#000000;stroke-width:1.47733819" />
    <path
       id="path4581"
       d=""
       style="fill:#000000;stroke-width:1.47733819" />
    <path
       id="path4579"
       d=""
       style="fill:#000000;stroke-width:1.47733819" />
    <path
       id="path4577"
       d=""
       style="fill:#000000;stroke-width:1.47733819" />
    <path
       id="path4575"
       d=""
       style="fill:#000000;stroke-width:1.47733819" />
    <path
       id="path4573"
       d=""
       style="fill:#000000;stroke-width:1.47733819" />
    <path
       id="path4569"
       d=""
       style="fill:#000000;stroke-width:1.47733819" />
    <path
       id="path4565"
       d=""
       style="fill:#000000;stroke-width:1.47733819" />
    <path
       id="path4563"
       d=""
       style="fill:#000000;stroke-width:1.47733819" />
    <path
       id="path4561"
       d=""
       style="fill:#000000;stroke-width:1.47733819" />
    <path
       id="path4555"
       d=""
       style="fill:#000000;stroke-width:1.47733819" />
    <path
       id="path4553"
       d=""
       style="fill:#000000;stroke-width:1.47733819" />
    <path
       id="path4551"
       d=""
       style="fill:#000000;stroke-width:1.47733819" />
    <g
       transform="matrix(0.3527777,0,0,0.3527777,62.86802,137.25571)"
       id="g4875">
      <path
         d="m 164.96094,300.00391 h 0.0234 c 0.0195,0 0.0391,-0.004 0.0586,-0.004 H 437 c 6.69531,0 12.58203,-4.44141 14.42187,-10.87891 l 60,-209.999996 C 512.71484,74.59375 511.80859,69.726562 508.97656,65.96875 506.14062,62.210938 501.70703,60 497,60 H 130.36719 L 119.64453,11.746094 C 118.11719,4.882812 112.03125,0 105,0 H 15 C 6.714844,0 0,6.714844 0,15 0,23.285156 6.714844,30 15,30 h 77.96875 c 1.898438,8.550781 51.3125,230.91797 54.15625,243.71094 C 131.18359,280.64062 120,296.53516 120,315 c 0,24.8125 20.1875,45 45,45 h 272 c 8.28516,0 15,-6.71484 15,-15 0,-8.28516 -6.71484,-15 -15,-15 H 165 c -8.26953,0 -15,-6.73047 -15,-15 0,-8.25781 6.70703,-14.97656 14.96094,-14.99609 z M 477.11328,90 425.68359,270 H 177.03125 l -40,-180 z m 0,0"
         id="path4858" />
      <path
         d="m 150,405 c 0,24.8125 20.1875,45 45,45 24.8125,0 45,-20.1875 45,-45 0,-24.8125 -20.1875,-45 -45,-45 -24.8125,0 -45,20.1875 -45,45 z m 45,-15 c 8.26953,0 15,6.73047 15,15 0,8.26953 -6.73047,15 -15,15 -8.26953,0 -15,-6.73047 -15,-15 0,-8.26953 6.73047,-15 15,-15 z m 0,0"
         id="path4860" />
      <path
         d="m 362,405 c 0,24.8125 20.1875,45 45,45 24.8125,0 45,-20.1875 45,-45 0,-24.8125 -20.1875,-45 -45,-45 -24.8125,0 -45,20.1875 -45,45 z m 45,-15 c 8.26953,0 15,6.73047 15,15 0,8.26953 -6.73047,15 -15,15 -8.26953,0 -15,-6.73047 -15,-15 0,-8.26953 6.73047,-15 15,-15 z m 0,0"
         id="path4862" />
    </g>
  </g>
</svg>
