<?xml version="1.0" encoding="UTF-8" standalone="no"?>
<!-- Created with Inkscape (http://www.inkscape.org/) -->

<svg
   xmlns:dc="http://purl.org/dc/elements/1.1/"
   xmlns:cc="http://creativecommons.org/ns#"
   xmlns:rdf="http://www.w3.org/1999/02/22-rdf-syntax-ns#"
   xmlns:svg="http://www.w3.org/2000/svg"
   xmlns="http://www.w3.org/2000/svg"
   xmlns:sodipodi="http://sodipodi.sourceforge.net/DTD/sodipodi-0.dtd"
   xmlns:inkscape="http://www.inkscape.org/namespaces/inkscape"
   width="50mm"
   height="50mm"
   viewBox="0 0 50 50"
   version="1.1"
   id="svg8"
   inkscape:version="0.92.4 (5da689c313, 2019-01-14)"
   sodipodi:docname="cup.svg">
  <defs
     id="defs2" />
  <sodipodi:namedview
     id="base"
     pagecolor="#ffffff"
     bordercolor="#666666"
     borderopacity="1.0"
     inkscape:pageopacity="0.0"
     inkscape:pageshadow="2"
     inkscape:zoom="0.35"
     inkscape:cx="439.80955"
     inkscape:cy="316.95242"
     inkscape:document-units="mm"
     inkscape:current-layer="layer1"
     showgrid="false"
     inkscape:window-width="1920"
     inkscape:window-height="1017"
     inkscape:window-x="-8"
     inkscape:window-y="-8"
     inkscape:window-maximized="1" />
  <metadata
     id="metadata5">
    <rdf:RDF>
      <cc:Work
         rdf:about="">
        <dc:format>image/svg+xml</dc:format>
        <dc:type
           rdf:resource="http://purl.org/dc/dcmitype/StillImage" />
        <dc:title></dc:title>
      </cc:Work>
    </rdf:RDF>
  </metadata>
  <g
     inkscape:label="Layer 1"
     inkscape:groupmode="layer"
     id="layer1"
     transform="translate(143.20258,-182.69366)">
    <g
       id="g5088"
       transform="matrix(0.09765625,0,0,0.09765625,-143.20258,182.69366)">
      <path
         id="path5050"
         d="M 467,0 H 423.76172 L 393.06641,30 H 467 c 8.27734,0 15,6.722656 15,15 v 22.851562 c 0,30.234376 -10.39844,59.882818 -29.29688,83.496098 -16.1289,20.17187 -37.60156,35.14062 -62.09375,43.30078 l -21.15234,7.04687 c -7.85156,2.6211 -12.10156,11.11719 -9.49219,18.98438 2.09375,6.28515 7.95313,10.2539 14.23828,10.2539 1.56641,0 3.16407,-0.25 4.7461,-0.76172 l 21.15234,-7.0625 c 29.98438,-9.98828 56.27735,-28.32812 76.03906,-53.01171 C 499.25781,141.18359 512,104.86719 512,67.851562 V 45 C 512,20.1875 491.8125,0 467,0 Z m 0,0"
         inkscape:connector-curvature="0"
         style="fill:#ff7816" />
      <path
         id="path5052"
         d="m 142.54297,201.69531 -21.15234,-7.03125 C 96.898438,186.48828 75.425781,171.51953 59.296875,151.34766 40.398438,127.73438 30,98.085938 30,67.851562 V 45 c 0,-8.277344 6.722656,-15 15,-15 h 77.51563 L 88.238281,0 H 45 C 20.1875,0 0,20.1875 0,45 v 22.851562 c 0,37.015628 12.742188,73.332028 35.859375,102.246098 19.761719,24.68359 46.054687,43.02343 76.039065,53.02734 l 21.15234,7.04687 c 1.58203,0.51172 3.17969,0.76172 4.74609,0.76172 6.28516,0 12.14454,-3.96875 14.23829,-10.2539 2.60937,-7.86719 -1.64063,-16.36328 -9.49219,-18.98438 z m 0,0"
         inkscape:connector-curvature="0"
         style="fill:#ff9f00" />
      <path
         id="path5054"
         d="M 302,292.80078 V 315 c 0,8.39844 6.59766,15 15,15 24.90234,0 45,20.09766 45,45 v 30 c 0,8.39844 -6.59766,15 -15,15 H 165 c -8.40234,0 -15,-6.60156 -15,-15 v -30 c 0,-24.90234 20.09766,-45 45,-45 8.40234,0 15,-6.60156 15,-15 V 292.80078 C 154.19922,275.09766 113.40234,225.89844 106.80078,167.39844 L 88.199219,0 H 423.80078 L 405.19922,167.39844 C 398.59766,225.89844 357.80078,275.09766 302,292.80078 Z m 0,0"
         inkscape:connector-curvature="0"
         style="fill:#ffd400" />
      <path
         id="path5056"
         d="M 347,420 H 256 V 0 H 423.80078 L 405.19922,167.39844 C 398.59766,225.89844 357.80078,275.09766 302,292.80078 V 315 c 0,8.39844 6.59766,15 15,15 24.90234,0 45,20.09766 45,45 v 30 c 0,8.39844 -6.59766,15 -15,15 z m 0,0"
         inkscape:connector-curvature="0"
         style="fill:#ff9f00" />
      <path
         id="path5058"
         d="m 330.39844,113.09766 c -1.80078,-5.69922 -6.59766,-9.59766 -12.29688,-10.4961 L 284.5,97.800781 269.5,68.097656 c -2.69922,-5.097656 -8.10156,-7.5 -13.5,-7.5 -5.39844,0 -10.80078,2.402344 -13.5,7.5 l -15,29.703125 -33.60156,4.796879 c -5.69922,0.90234 -10.4961,4.80078 -12.29688,10.5 -1.5,5.40234 0,11.39843 4.19922,15.30078 l 24,23.10156 -5.69922,32.39844 c -0.90234,5.40234 1.19922,11.10156 6,14.70312 4.5,3.29688 10.80078,3.89844 15.59766,1.19922 L 256,184.19922 l 30.30078,15.60156 c 5.09766,2.69922 11.09766,2.09766 15.60156,-1.19922 4.79688,-3.60156 6.89844,-9.30078 5.9961,-14.70312 L 302.19922,151.5 l 24,-23.10156 c 4.19922,-3.89844 5.70312,-9.89844 4.19922,-15.30078 z m 0,0"
         inkscape:connector-curvature="0"
         style="fill:#ff9f00" />
      <path
         id="path5060"
         d="m 392,405 v 90.80078 H 120 V 405 c 0,-8.40234 6.59766,-15 15,-15 h 242 c 8.40234,0 15,6.59766 15,15 z m 0,0"
         inkscape:connector-curvature="0"
         style="fill:#ec5569" />
      <path
         id="path5062"
         d="M 286.30078,199.80078 256,184.19922 V 60.597656 c 5.39844,0 10.80078,2.402344 13.5,7.5 l 15,29.703125 33.60156,4.800779 c 5.69922,0.89844 10.4961,4.79688 12.29688,10.4961 1.5,5.40234 0,11.40234 -4.19922,15.30078 l -24,23.10156 5.69922,32.40234 c 0.90234,5.39844 -1.19922,11.09766 -6,14.69922 -4.5,3.29688 -10.5,3.89844 -15.59766,1.19922 z m 0,0"
         inkscape:connector-curvature="0"
         style="fill:#ff7816" />
      <path
         id="path5064"
         d="m 392,405 v 90.80078 H 256 V 390 h 121 c 8.40234,0 15,6.59766 15,15 z m 0,0"
         inkscape:connector-curvature="0"
         style="fill:#cc2e43" />
      <path
         id="path5066"
         d="m 422,497 c 0,8.39844 -6.59766,15 -15,15 H 105 c -8.402344,0 -15,-6.60156 -15,-15 0,-8.40234 6.597656,-15 15,-15 h 302 c 8.40234,0 15,6.59766 15,15 z m 0,0"
         inkscape:connector-curvature="0"
         style="fill:#697c86" />
      <path
         id="path5068"
         d="m 422,497 c 0,8.39844 -6.59766,15 -15,15 H 256 v -30 h 151 c 8.40234,0 15,6.59766 15,15 z m 0,0"
         inkscape:connector-curvature="0"
         style="fill:#465a61" />
    </g>
  </g>
</svg>
