<?xml version="1.0" encoding="UTF-8" standalone="no"?>
<!-- Created with Inkscape (http://www.inkscape.org/) -->

<svg
   xmlns:dc="http://purl.org/dc/elements/1.1/"
   xmlns:cc="http://creativecommons.org/ns#"
   xmlns:rdf="http://www.w3.org/1999/02/22-rdf-syntax-ns#"
   xmlns:svg="http://www.w3.org/2000/svg"
   xmlns="http://www.w3.org/2000/svg"
   xmlns:sodipodi="http://sodipodi.sourceforge.net/DTD/sodipodi-0.dtd"
   xmlns:inkscape="http://www.inkscape.org/namespaces/inkscape"
   width="210mm"
   height="77mm"
   viewBox="0 0 210 77"
   version="1.1"
   id="svg8"
   inkscape:version="0.92.4 (5da689c313, 2019-01-14)"
   sodipodi:docname="drawing.svg">
  <defs
     id="defs2" />
  <sodipodi:namedview
     id="base"
     pagecolor="#ffffff"
     bordercolor="#666666"
     borderopacity="1.0"
     inkscape:pageopacity="0.0"
     inkscape:pageshadow="2"
     inkscape:zoom="0.35"
     inkscape:cx="-451.42857"
     inkscape:cy="560"
     inkscape:document-units="mm"
     inkscape:current-layer="layer1"
     showgrid="false"
     inkscape:window-width="1920"
     inkscape:window-height="1017"
     inkscape:window-x="-8"
     inkscape:window-y="-8"
     inkscape:window-maximized="1"
     units="mm"
     height="298mm"
     inkscape:pagecheckerboard="true" />
  <metadata
     id="metadata5">
    <rdf:RDF>
      <cc:Work
         rdf:about="">
        <dc:format>image/svg+xml</dc:format>
        <dc:type
           rdf:resource="http://purl.org/dc/dcmitype/StillImage" />
        <dc:title></dc:title>
      </cc:Work>
    </rdf:RDF>
  </metadata>
  <g
     inkscape:label="Layer 1"
     inkscape:groupmode="layer"
     id="layer1"
     transform="translate(0,-220)">
    <path
       style="fill:#000000;stroke-width:1.51388347"
       d=""
       id="path4563"
       inkscape:connector-curvature="0" />
    <path
    
       d="m 114.80142,293.27286 c -2.44523,-3.91397 -5.94098,-4.52963 -5.94098,-1.0463 0,1.29839 -0.6811,1.93957 -1.51355,1.42486 -0.83245,-0.51471 -1.51355,-2.93982 -1.51355,-5.38913 0,-2.44931 0.6811,-4.45329 1.51355,-4.45329 0.83245,0 1.51355,0.787 1.51355,1.7489 0,1.04639 1.11183,0.74227 2.76788,-0.75711 3.72816,-3.37543 5.21007,-3.15606 4.02003,0.59509 -0.5411,1.7056 -0.18206,4.06759 0.79787,5.24885 0.97993,1.18127 1.48964,3.02242 1.13269,4.09144 -0.42774,1.28104 -1.37465,0.78217 -2.77749,-1.46331 z m 6.47011,0.83282 c -3.01513,-3.01646 -2.19458,-9.98757 1.40229,-11.91341 4.93445,-2.64201 10.40339,0.41964 10.40339,5.82408 0,5.07434 -2.43968,7.9064 -6.81097,7.9064 -1.74815,0 -3.99577,-0.81768 -4.99471,-1.81707 z m 8.77858,-3.4827 c 1.50323,-1.81209 1.50323,-2.73057 0,-4.54266 -2.55188,-3.07619 -5.63342,-2.85879 -7.44365,0.52514 -2.71642,5.07793 3.69388,8.53772 7.44365,4.01752 z m 13.26643,1.22739 c -4.07057,-4.07238 -4.07057,-4.07238 -5.54547,-0.37855 -1.26644,3.17176 -1.48845,2.63725 -1.57083,-3.78202 -0.0959,-7.47584 -0.0959,-7.47584 4.29259,-3.2695 4.12388,3.95268 4.48619,4.03825 6.00816,1.41896 1.33639,-2.29989 1.6277,-1.66188 1.66567,3.64806 0.0253,3.53948 -0.13973,6.43543 -0.36676,6.43543 -0.22703,0 -2.24454,-1.83257 -4.48336,-4.07238 z m 7.88557,0.18769 c -0.96804,-2.54727 -0.9557,-4.85789 0.0358,-6.71144 3.59108,-6.71297 13.62375,-4.66909 13.62375,2.77547 0,5.33977 -2.50856,7.82066 -7.9079,7.82066 -3.19686,0 -4.64782,-0.97998 -5.7517,-3.88469 z m 9.87574,-3.68641 c 0,-2.70498 -0.91709,-3.91645 -3.21284,-4.24416 -3.5065,-0.50053 -5.5687,2.80497 -4.11476,6.59555 1.50681,3.92843 7.3276,2.06057 7.3276,-2.35139 z m 12.79617,3.71208 c -3.30908,-3.52391 -3.71705,-3.62252 -4.6981,-1.13566 -0.67582,1.71312 -1.09736,0.19569 -1.13636,-4.09064 -0.0621,-6.81398 -0.0621,-6.81398 4.34145,-1.9728 4.40347,4.84117 4.40347,4.84117 5.02628,0.75711 0.37023,-2.42781 0.71477,-1.16719 0.84958,3.10847 0.12472,3.95589 0.005,7.19254 -0.26617,7.19254 -0.27111,0 -2.12363,-1.73656 -4.11668,-3.85902 z m 9.12213,0.77798 c -3.9308,-7.34804 1.71949,-13.64568 9.56543,-10.66134 2.79545,1.0633 4.05804,0.96808 4.50818,-0.33999 0.34389,-0.99931 2.03221,0.47949 3.75181,3.28623 3.12656,5.10316 3.12656,5.10316 5.77378,0 1.45597,-2.80674 2.91777,-4.30231 3.24845,-3.3235 0.81859,2.42303 -5.43058,14.42157 -7.00435,13.4485 -0.69213,-0.42796 -2.14076,-2.90919 -3.21916,-5.51384 -1.96075,-4.73574 -1.96075,-4.73574 -3.60257,0.34606 -1.35014,4.17902 -2.49782,5.16477 -6.46029,5.5488 -3.67001,0.35568 -5.23386,-0.30953 -6.56128,-2.79092 z m 9.17247,-2.29472 c 1.59991,-1.92863 1.54592,-2.74884 -0.30273,-4.5983 -2.44189,-2.44298 -7.32805,-1.43947 -7.32805,1.50501 0,1.95052 2.98808,5.44061 4.65803,5.44061 0.56403,0 1.90176,-1.0563 2.97275,-2.34732 z M 4.425621,276.2379 c -6.38627,-6.38909 -2.41157,-14.11701 6.87133,-13.35979 5.79455,0.47268 6.01007,0.68829 6.48254,6.48541 0.75689,9.28702 -6.96761,13.26348 -13.35387,6.87438 z m 9.6426,-2.81235 c 2.39088,-2.64308 2.35945,-3.03045 -0.5222,-6.43543 -3.06621,-3.62308 -3.06621,-3.62308 -6.07134,-0.0755 -2.31573,2.73376 -2.65073,4.21009 -1.4603,6.43543 1.95274,3.65034 4.79595,3.67698 8.05384,0.0755 z m 8.01546,4.83131 c -1.61531,-1.61602 -1.1629,-15.64693 0.50451,-15.64693 0.83246,0 1.51355,3.0663 1.51355,6.81399 0,6.79945 0.0115,6.81398 5.38675,6.81398 3.20574,0 5.008,0.61308 4.45131,1.51422 -1.04307,1.68848 -10.27986,2.0817 -11.85612,0.50474 z m 14.12645,-7.31872 c 0,-8.32821 0,-8.32821 7.18935,-8.12887 6.64356,0.1842 6.79633,0.27041 2.01225,1.13566 -5.75762,1.04132 -8.30924,4.72188 -3.27354,4.72188 1.73427,0 3.15323,0.6814 3.15323,1.51422 0,0.83282 -1.41896,1.51422 -3.15323,1.51422 -5.01624,0 -2.4854,3.7288 2.8914,4.26004 7.30268,0.72151 5.73186,3.31105 -2.0085,3.31105 -6.81096,0 -6.81096,0 -6.81096,-8.3282 z m 15.97611,4.33784 c -1.16588,-4.64733 0.29447,-12.66605 2.30672,-12.66605 0.76631,0 1.39329,1.10047 1.39329,2.44548 0,2.21998 0.36103,2.20882 3.91519,-0.12098 4.41695,-2.89538 6.57797,-2.06542 3.6892,1.41688 -1.55205,1.87094 -1.45105,2.99846 0.54109,6.04019 3.87401,5.91511 2.85454,7.8298 -1.79572,3.37259 -5.04598,-4.8365 -6.34976,-5.06847 -6.34976,-1.12977 0,4.5983 -2.59451,5.04825 -3.70001,0.64166 z m 17.98962,1.65003 c -2.73569,-2.17918 -2.49506,-2.27428 3.49458,-1.38112 8.07056,1.20346 8.43064,-1.10927 0.75678,-4.8606 -7.5527,-3.6921 -7.46374,-7.17061 0.19945,-7.7991 3.23139,-0.26503 6.63688,0.33142 7.56774,1.32543 1.29214,1.3798 0.73109,1.63742 -2.37193,1.08911 -6.36962,-1.12553 -8.7438,1.38866 -2.77301,2.93653 6.84368,1.77416 9.37183,5.90639 5.41298,8.84744 -3.8165,2.83528 -8.60647,2.7738 -12.28659,-0.15769 z m 16.84706,-2.20233 c -0.58006,-2.91487 -0.42292,-7.00326 0.34921,-9.08531 1.40388,-3.78555 1.40388,-3.78555 2.36889,0.75711 0.53077,2.49846 0.37362,6.58685 -0.34921,9.08531 -1.31423,4.54266 -1.31423,4.54266 -2.36889,-0.75711 z m 9.72913,1.3144 c 0,-1.77555 -1.41774,-5.52324 -3.15054,-8.32821 -2.60583,-4.2182 -2.74968,-5.09994 -0.83198,-5.09994 1.27521,0 2.97765,1.17827 3.78322,2.61837 1.37551,2.45899 1.65704,2.44419 4.625129,-0.24309 4.41198,-3.99455 5.66755,-1.86886 1.80091,3.04895 -1.7598,2.23822 -3.199639,5.6811 -3.199639,7.65084 0,1.96974 -0.6811,3.58134 -1.51355,3.58134 -0.83245,0 -1.51355,-1.45272 -1.51355,-3.22826 z m 26.643029,-0.4466 c -3.24405,-1.19799 -6.90305,-3.1834 -8.13111,-4.41201 -1.96811,-1.96897 0.21411,-2.23696 18.40448,-2.26014 12.38246,-0.0158 20.28846,0.53844 19.76513,1.38557 -3.42924,5.55108 -20.96514,8.63729 -30.0385,5.28658 z m 38.37894,-9.57455 c -0.0598,-8.58138 -0.0931,-8.6468 -2.31865,-4.54266 -1.68771,3.1123 -3.40259,4.1641 -6.78924,4.1641 -4.44968,0 -4.49293,-0.0749 -2.40428,-4.1641 8.11819,-15.89399 -0.45033,-32.17715 -16.93224,-32.17715 -12.2719,0 -21.79184,13.56361 -18.32824,26.1133 0.84639,3.06673 2.19477,5.9814 2.9964,6.47705 2.92009,1.80552 1.34865,3.7509 -3.02989,3.7509 -3.10166,0 -5.05321,-1.0521 -6.31967,-3.40699 -2.77554,-5.16092 -2.39417,-20.73159 0.64713,-26.42056 10.26288,-19.19748 39.17397,-18.69397 49.50312,0.86213 2.90238,5.49503 2.90238,5.49503 2.96926,-4.72595 0.0601,-9.18919 0.37249,-10.22098 3.09399,-10.22098 2.61997,0 3.05118,1.0692 3.20617,7.94965 0.0985,4.37231 0.60932,9.79706 1.13516,12.055 0.95584,4.10426 0.95988,4.10215 15.23613,-7.94965 10.45499,-8.82594 15.42138,-12.055 18.54097,-12.055 2.3435,0 4.26092,0.3466 4.26092,0.77021 0,0.42361 -4.43439,5.02305 -9.8542,10.22097 -9.85419,9.45078 -9.85419,9.45078 -0.54946,22.32164 15.1701,20.98415 14.57317,19.68484 9.04353,19.68484 -4.21623,0 -5.82741,-1.49412 -14.69645,-13.62873 -9.96107,-13.62873 -9.96107,-13.62873 -13.97966,-10.62303 -9.44254,7.06253 -9.31601,6.84913 -9.31601,15.71194 0,7.53034 -0.35783,8.53982 -3.0271,8.53982 -2.66909,0 -3.03425,-1.02969 -3.08769,-8.70675 z"
       id="path4561"
       inkscape:connector-curvature="0" />
    <path
       style="fill:#000000;stroke-width:1.51388347"
       d=""
       id="path4555"
       inkscape:connector-curvature="0" />
    <path
       style="fill:#000000;stroke-width:1.51388347"
       d=""
       id="path4553"
       inkscape:connector-curvature="0" />
    <path
       style="fill:#000000;stroke-width:1.51388347"
       d=""
       id="path4545"
       inkscape:connector-curvature="0" />
    <path
       style="fill:#000000;stroke-width:1.51388347"
       d=""
       id="path4533"
       inkscape:connector-curvature="0" />
    <path
       style="fill:#000000;stroke-width:1.51388347"
       d=""
       id="path4531"
       inkscape:connector-curvature="0" />
    <path
       style="fill:#000000;stroke-width:1.51388347"
       d=""
       id="path3724"
       inkscape:connector-curvature="0" />
  </g>
</svg>
