<?xml version="1.0" encoding="UTF-8" standalone="no"?>
<!-- Created with Inkscape (http://www.inkscape.org/) -->

<svg
   xmlns:dc="http://purl.org/dc/elements/1.1/"
   xmlns:cc="http://creativecommons.org/ns#"
   xmlns:rdf="http://www.w3.org/1999/02/22-rdf-syntax-ns#"
   xmlns:svg="http://www.w3.org/2000/svg"
   xmlns="http://www.w3.org/2000/svg"
   xmlns:sodipodi="http://sodipodi.sourceforge.net/DTD/sodipodi-0.dtd"
   xmlns:inkscape="http://www.inkscape.org/namespaces/inkscape"
   width="30mm"
   height="30mm"
   viewBox="0 0 30.000001 30"
   version="1.1"
   id="svg8"
   inkscape:version="0.92.4 (5da689c313, 2019-01-14)"
   sodipodi:docname="enjoy-icon.svg">
  <defs
     id="defs2" />
  <sodipodi:namedview
     id="base"
     pagecolor="#ffffff"
     bordercolor="#666666"
     borderopacity="1.0"
     inkscape:pageopacity="0.0"
     inkscape:pageshadow="2"
     inkscape:zoom="0.35"
     inkscape:cx="238.18766"
     inkscape:cy="254.88677"
     inkscape:document-units="mm"
     inkscape:current-layer="layer1"
     showgrid="false"
     inkscape:window-width="1920"
     inkscape:window-height="1017"
     inkscape:window-x="-8"
     inkscape:window-y="-8"
     inkscape:window-maximized="1" />
  <metadata
     id="metadata5">
    <rdf:RDF>
      <cc:Work
         rdf:about="">
        <dc:format>image/svg+xml</dc:format>
        <dc:type
           rdf:resource="http://purl.org/dc/dcmitype/StillImage" />
        <dc:title></dc:title>
      </cc:Work>
    </rdf:RDF>
  </metadata>
  <g
     inkscape:label="Layer 1"
     inkscape:groupmode="layer"
     id="layer1"
     transform="translate(-78.448438,-258.1632)">
    <g
       id="g1262"
       transform="matrix(0.05859375,0,0,0.05859375,78.448438,258.1632)">
      <g
         id="g1097">
	<g
   id="g1095">
		<path
   id="path1093"
   d="m 309.126,158.729 c -4.505,-3.195 -10.747,-2.137 -13.943,2.368 l -0.194,0.273 c -3.196,4.504 -2.136,10.746 2.368,13.942 1.757,1.246 3.777,1.846 5.779,1.846 3.131,0 6.214,-1.466 8.164,-4.214 l 0.194,-0.273 c 3.196,-4.504 2.136,-10.746 -2.368,-13.942 z"
   inkscape:connector-curvature="0" />

	</g>

</g>
      <g
         id="g1103">
	<g
   id="g1101">
		<path
   id="path1099"
   d="m 286.344,187.069 c -3.502,-4.271 -9.803,-4.892 -14.073,-1.389 -13.893,11.396 -29.68,19.508 -46.923,24.112 -5.336,1.425 -8.507,6.905 -7.082,12.241 1.194,4.472 5.236,7.423 9.655,7.423 0.854,0 1.722,-0.11 2.586,-0.342 20.017,-5.345 38.335,-14.756 54.447,-27.972 4.271,-3.502 4.893,-9.804 1.39,-14.073 z"
   inkscape:connector-curvature="0" />

	</g>

</g>
      <g
         id="g1109">
	<g
   id="g1107">
		<path
   id="path1105"
   d="m 482,226.47 c -16.542,0 -30,13.458 -30,29.999 v 5.001 c 0,41.937 -30.535,76.854 -70.535,83.743 5.224,-7.705 8.28,-16.994 8.28,-26.984 v -6.946 c 0,-26.58 -21.625,-48.204 -48.205,-48.204 -26.58,0 -48.204,21.624 -48.204,48.204 v 6.946 c 0,9.736 2.91,18.8 7.893,26.387 C 262.8,336.47 233.872,302.29 233.872,261.47 v -5.001 c 0,-16.541 -13.458,-29.999 -30,-29.999 -16.542,0 -30,13.458 -30,29.999 v 5.001 c 0,20.297 4.13,39.926 12.098,58.061 h -66.217 -1.826 V 218.823 c 0,-4.464 -2.958,-8.388 -7.25,-9.614 C 57.288,193.94 20,144.509 20,89 v -5 c 0,-5.514 4.486,-10 10,-10 5.514,0 10,4.486 10,10 v 5 c 0,57.897 47.103,105 105,105 h 48.127 c 57.897,0 105,-47.103 105,-105 v -5 c 0,-5.514 4.486,-10 10,-10 5.514,0 10,4.486 10,10 v 5 c 0,15.371 -2.769,30.386 -8.231,44.625 -1.978,5.156 0.599,10.94 5.756,12.918 5.154,1.979 10.94,-0.6 12.918,-5.756 6.342,-16.534 9.557,-33.958 9.557,-51.787 v -5 c 0,-16.542 -13.458,-30 -30,-30 -16.542,0 -30,13.458 -30,30 v 5 c 0,41.936 -30.535,76.853 -70.534,83.743 5.224,-7.705 8.279,-16.993 8.279,-26.982 v -6.946 c 0,-26.58 -21.625,-48.205 -48.205,-48.205 -26.58,0 -48.204,21.625 -48.204,48.205 v 6.946 c 0,9.735 2.91,18.799 7.893,26.385 C 88.927,164 60,129.82 60,89 V 84 C 60,67.458 46.542,54 30,54 13.458,54 0,67.458 0,84 v 5 c 0,32.106 10.322,62.548 29.849,88.033 17.344,22.635 41.309,39.875 68.079,49.118 V 329.53 c 0,5.522 4.477,10 10,10 h 1.826 V 502 c 0,5.522 4.477,10 10,10 5.523,0 10,-4.478 10,-10 V 339.53 h 66.96 c 2.186,3.399 4.521,6.726 7.008,9.972 0.662,0.864 1.351,1.704 2.032,2.552 V 502 c 0,5.522 4.477,10 10,10 5.523,0 10,-4.478 10,-10 V 372.49 c 13.625,11.419 29.286,20.342 46.047,26.13 V 502 c 0,5.522 4.477,10 10,10 5.523,0 10,-4.478 10,-10 V 391.292 c 0,-4.464 -2.958,-8.388 -7.25,-9.614 -53.39,-15.269 -90.678,-64.699 -90.678,-120.208 v -5.001 c 0,-5.514 4.486,-9.999 10,-9.999 5.514,0 10,4.485 10,9.999 v 5.001 c 0,57.897 47.103,105 105,105 H 367 c 57.897,0 105,-47.103 105,-105 v -5.001 c 0,-5.514 4.486,-9.999 10,-9.999 5.514,0 10,4.485 10,9.999 v 5.001 c 0,56.534 -38.152,106.205 -92.778,120.791 -4.376,1.168 -7.42,5.132 -7.42,9.661 v 72.411 c 0,5.522 4.477,10 10,10 5.523,0 10,-4.478 10,-10 V 399.39 C 471.176,380.101 512,324.459 512,261.47 v -5.001 C 512,239.928 498.542,226.47 482,226.47 Z M 139.463,138.814 c 0,-15.553 12.652,-28.205 28.204,-28.205 15.552,0 28.205,12.652 28.205,28.205 v 6.946 c 0,15.552 -12.652,28.204 -28.205,28.204 -15.552,0 -28.204,-12.652 -28.204,-28.204 z m 230.282,179.415 c 0,15.552 -12.652,28.204 -28.205,28.204 -15.552,0 -28.204,-12.652 -28.204,-28.204 v -6.946 c 0,-15.552 12.652,-28.204 28.204,-28.204 15.552,0 28.205,12.652 28.205,28.204 z"
   inkscape:connector-curvature="0" />

	</g>

</g>
      <g
         id="g1115">
	<g
   id="g1113">
		<path
   id="path1111"
   d="m 408.87,494.93 c -1.86,-1.861 -4.44,-2.93 -7.07,-2.93 -2.63,0 -5.21,1.069 -7.07,2.93 -1.86,1.86 -2.93,4.44 -2.93,7.07 0,2.63 1.07,5.21 2.93,7.069 1.86,1.86 4.44,2.931 7.07,2.931 2.63,0 5.21,-1.07 7.07,-2.931 1.86,-1.859 2.93,-4.439 2.93,-7.069 0,-2.63 -1.07,-5.21 -2.93,-7.07 z"
   inkscape:connector-curvature="0" />

	</g>

</g>
      <g
         id="g1121">
	<g
   id="g1119">
		<path
   id="path1117"
   d="m 167.667,374 c -5.523,0 -10,4.478 -10,10 v 118 c 0,5.522 4.477,10 10,10 5.523,0 10,-4.478 10,-10 V 384 c 0,-5.522 -4.477,-10 -10,-10 z"
   inkscape:connector-curvature="0" />

	</g>

</g>
      <g
         id="g1127">
	<g
   id="g1125">
		<path
   id="path1123"
   d="m 466,82 c -5.523,0 -10,4.478 -10,10 v 12.43 c 0,5.522 4.477,10 10,10 5.523,0 10,-4.478 10,-10 V 92 c 0,-5.522 -4.477,-10 -10,-10 z"
   inkscape:connector-curvature="0" />

	</g>

</g>
      <g
         id="g1133">
	<g
   id="g1131">
		<path
   id="path1129"
   d="m 466,141.57 c -5.523,0 -10,4.478 -10,10 V 164 c 0,5.522 4.477,10 10,10 5.523,0 10,-4.478 10,-10 v -12.43 c 0,-5.522 -4.477,-10 -10,-10 z"
   inkscape:connector-curvature="0" />

	</g>

</g>
      <g
         id="g1139">
	<g
   id="g1137">
		<path
   id="path1135"
   d="m 502,118 h -12.43 c -5.523,0 -10,4.478 -10,10 0,5.522 4.477,10 10,10 H 502 c 5.523,0 10,-4.478 10,-10 0,-5.522 -4.477,-10 -10,-10 z"
   inkscape:connector-curvature="0" />

	</g>

</g>
      <g
         id="g1145">
	<g
   id="g1143">
		<path
   id="path1141"
   d="M 442.43,118 H 430 c -5.523,0 -10,4.478 -10,10 0,5.522 4.477,10 10,10 h 12.43 c 5.523,0 10,-4.478 10,-10 0,-5.522 -4.477,-10 -10,-10 z"
   inkscape:connector-curvature="0" />

	</g>

</g>
      <g
         id="g1151">
	<g
   id="g1149">
		<path
   id="path1147"
   d="m 219.873,0 c -5.523,0 -10,4.478 -10,10 v 12.43 c 0,5.522 4.477,10 10,10 5.523,0 10,-4.478 10,-10 V 10 c 0,-5.522 -4.477,-10 -10,-10 z"
   inkscape:connector-curvature="0" />

	</g>

</g>
      <g
         id="g1157">
	<g
   id="g1155">
		<path
   id="path1153"
   d="m 219.873,59.57 c -5.523,0 -10,4.478 -10,10 V 82 c 0,5.522 4.477,10 10,10 5.523,0 10,-4.478 10,-10 V 69.57 c 0,-5.522 -4.477,-10 -10,-10 z"
   inkscape:connector-curvature="0" />

	</g>

</g>
      <g
         id="g1163">
	<g
   id="g1161">
		<path
   id="path1159"
   d="m 255.873,36 h -12.43 c -5.523,0 -10,4.478 -10,10 0,5.522 4.477,10 10,10 h 12.43 c 5.523,0 10,-4.478 10,-10 0,-5.522 -4.477,-10 -10,-10 z"
   inkscape:connector-curvature="0" />

	</g>

</g>
      <g
         id="g1169">
	<g
   id="g1167">
		<path
   id="path1165"
   d="m 196.303,36 h -12.43 c -5.523,0 -10,4.478 -10,10 0,5.522 4.477,10 10,10 h 12.43 c 5.523,0 10,-4.478 10,-10 0,-5.522 -4.477,-10 -10,-10 z"
   inkscape:connector-curvature="0" />

	</g>

</g>
      <g
         id="g1171">
</g>
      <g
         id="g1173">
</g>
      <g
         id="g1175">
</g>
      <g
         id="g1177">
</g>
      <g
         id="g1179">
</g>
      <g
         id="g1181">
</g>
      <g
         id="g1183">
</g>
      <g
         id="g1185">
</g>
      <g
         id="g1187">
</g>
      <g
         id="g1189">
</g>
      <g
         id="g1191">
</g>
      <g
         id="g1193">
</g>
      <g
         id="g1195">
</g>
      <g
         id="g1197">
</g>
      <g
         id="g1199">
</g>
    </g>
  </g>
</svg>
