<?xml version="1.0" encoding="UTF-8" standalone="no"?>
<!-- Created with Inkscape (http://www.inkscape.org/) -->

<svg
   xmlns:dc="http://purl.org/dc/elements/1.1/"
   xmlns:cc="http://creativecommons.org/ns#"
   xmlns:rdf="http://www.w3.org/1999/02/22-rdf-syntax-ns#"
   xmlns:svg="http://www.w3.org/2000/svg"
   xmlns="http://www.w3.org/2000/svg"
   xmlns:sodipodi="http://sodipodi.sourceforge.net/DTD/sodipodi-0.dtd"
   xmlns:inkscape="http://www.inkscape.org/namespaces/inkscape"
   width="30mm"
   height="30mm"
   viewBox="0 0 30.000001 30"
   version="1.1"
   id="svg8"
   inkscape:version="0.92.4 (5da689c313, 2019-01-14)"
   sodipodi:docname="fist-icon.svg">
  <defs
     id="defs2" />
  <sodipodi:namedview
     id="base"
     pagecolor="#ffffff"
     bordercolor="#666666"
     borderopacity="1.0"
     inkscape:pageopacity="0.0"
     inkscape:pageshadow="2"
     inkscape:zoom="0.35"
     inkscape:cx="305.38787"
     inkscape:cy="37.748285"
     inkscape:document-units="mm"
     inkscape:current-layer="layer1"
     showgrid="false"
     inkscape:window-width="1920"
     inkscape:window-height="1017"
     inkscape:window-x="-8"
     inkscape:window-y="-8"
     inkscape:window-maximized="1" />
  <metadata
     id="metadata5">
    <rdf:RDF>
      <cc:Work
         rdf:about="">
        <dc:format>image/svg+xml</dc:format>
        <dc:type
           rdf:resource="http://purl.org/dc/dcmitype/StillImage" />
        <dc:title></dc:title>
      </cc:Work>
    </rdf:RDF>
  </metadata>
  <g
     inkscape:label="Layer 1"
     inkscape:groupmode="layer"
     id="layer1"
     transform="translate(107.63685,-128.8209)">
    <g
       id="g1018"
       transform="matrix(0.05859375,0,0,0.05859375,-107.63685,128.8209)">
      <path
         id="path990"
         d="m 256,50 c 5.522,0 10,-4.477 10,-10 V 10 C 266,4.477 261.522,0 256,0 250.478,0 246,4.477 246,10 v 30 c 0,5.523 4.478,10 10,10 z"
         inkscape:connector-curvature="0" />
      <path
         id="path992"
         d="m 466,266 h 36 c 5.522,0 10,-4.477 10,-10 0,-5.523 -4.478,-10 -10,-10 h -36 c -5.522,0 -10,4.477 -10,10 0,5.523 4.478,10 10,10 z"
         inkscape:connector-curvature="0" />
      <path
         id="path994"
         d="m 10,266 h 36 c 5.522,0 10,-4.477 10,-10 0,-5.523 -4.478,-10 -10,-10 H 10 c -5.522,0 -10,4.477 -10,10 0,5.523 4.478,10 10,10 z"
         inkscape:connector-curvature="0" />
      <path
         id="path996"
         d="m 411.562,108.581 21.22,-21.22 c 3.905,-3.905 3.905,-10.237 0,-14.143 -3.906,-3.905 -10.236,-3.905 -14.143,0 l -21.22,21.22 c -3.905,3.905 -3.905,10.237 0,14.143 3.906,3.905 10.236,3.905 14.143,0 z"
         inkscape:connector-curvature="0" />
      <path
         id="path998"
         d="m 100.438,108.581 c 3.906,3.905 10.236,3.905 14.143,0 3.905,-3.905 3.905,-10.237 0,-14.143 l -21.22,-21.22 c -3.906,-3.905 -10.236,-3.905 -14.143,0 -3.905,3.905 -3.905,10.237 0,14.143 z"
         inkscape:connector-curvature="0" />
      <circle
         id="circle1000"
         r="10"
         cy="502"
         cx="256" />
      <path
         id="path1002"
         d="m 111,241 v 75 c 0,54.813 44.113,86.291 60,95.848 V 502 c 0,5.523 4.478,10 10,10 h 30 c 5.522,0 10,-4.477 10,-10 0,-5.523 -4.478,-10 -10,-10 h -20 v -86 c 0,-3.773 -2.142,-7.234 -5.51,-8.935 C 184.945,396.79 131,368.927 131,316 v -75 c 0,-11.028 8.972,-20 20,-20.01 H 259.995 C 255.35,243.794 235.146,261 211,261 h -30 c -5.522,0 -10,4.477 -10,10 0,5.523 4.478,10 10,10 44.112,0 80,35.888 80,80 0,5.523 4.478,10 10,10 5.522,0 10,-4.477 10,-10 0,-27.57 22.43,-50 50,-50 5.522,0 10,-4.477 10,-10 0,-5.523 -4.478,-10 -10,-10 -24.105,0 -45.402,12.248 -57.998,30.846 -7.927,-18.555 -21.298,-34.25 -38.105,-45.047 17.398,-6.339 31.589,-19.399 39.436,-36.018 7.083,6.349 16.43,10.179 26.668,10.179 2.563,0 5.184,0.04 7.595,0.04 4.716,0 9.264,-0.112 13.451,-0.947 C 326.16,267.761 342.058,281 361,281 c 7.283,0 14.112,-1.966 20,-5.381 V 316 c 0,52.927 -53.945,80.79 -54.472,81.056 C 323.14,398.75 321,402.212 321,406 v 86 h -20 c -5.522,0 -10,4.477 -10,10 0,5.523 4.478,10 10,10 h 30 c 5.522,0 10,-4.477 10,-10 v -90.152 c 15.887,-9.557 60,-41.035 60,-95.848 0,-19.906 0,-94.443 0,-126 0,-22.056 -17.944,-40 -40,-40 -7.388,0 -14.311,2.021 -20.256,5.529 C 338.513,135.57 321.544,120 301,120 c -7.388,0 -14.311,2.021 -20.256,5.529 C 278.513,105.57 261.544,90 241,90 220.456,90 203.487,105.57 201.256,125.529 195.311,122.021 188.388,120 181,120 c -22.056,0 -40,17.944 -40,40 v 42.266 c -17.233,4.452 -30,20.13 -30,38.734 z m 250,-71 c 11.028,0 20,8.972 20,20 v 51 c 0,11.028 -8.972,20 -20,20 -11.028,0 -20,-8.972 -20,-20 v -51 c 0,-11.028 8.972,-20 20,-20 z m -60,-30 c 11.028,0 20,8.972 20,20 v 66 c 0,2.836 -0.571,3.632 -0.577,3.638 -1.503,1.491 -10.186,1.422 -15.375,1.383 C 303.724,231.01 302.372,231 301,231 c -11.028,0 -20,-8.972 -20,-20 v -51 c 0,-11.028 8.972,-20 20,-20 z m -80,-10 c 0,-11.028 8.972,-20 20,-20 11.028,0 20,8.972 20,20 v 71 h -40 z m -40,10 c 11.028,0 20,8.972 20,20 v 41 h -40 v -41 c 0,-11.028 8.972,-20 20,-20 z"
         inkscape:connector-curvature="0" />
    </g>
  </g>
</svg>
