<?xml version="1.0" encoding="UTF-8" standalone="no"?>
<!-- Created with Inkscape (http://www.inkscape.org/) -->

<svg
   xmlns:dc="http://purl.org/dc/elements/1.1/"
   xmlns:cc="http://creativecommons.org/ns#"
   xmlns:rdf="http://www.w3.org/1999/02/22-rdf-syntax-ns#"
   xmlns:svg="http://www.w3.org/2000/svg"
   xmlns="http://www.w3.org/2000/svg"
   xmlns:sodipodi="http://sodipodi.sourceforge.net/DTD/sodipodi-0.dtd"
   xmlns:inkscape="http://www.inkscape.org/namespaces/inkscape"
   width="30mm"
   height="30mm"
   viewBox="0 0 30.000001 30"
   version="1.1"
   id="svg8"
   inkscape:version="0.92.4 (5da689c313, 2019-01-14)"
   sodipodi:docname="gymnast-icon.svg">
  <defs
     id="defs2" />
  <sodipodi:namedview
     id="base"
     pagecolor="#ffffff"
     bordercolor="#666666"
     borderopacity="1.0"
     inkscape:pageopacity="0.0"
     inkscape:pageshadow="2"
     inkscape:zoom="0.35"
     inkscape:cx="232.24502"
     inkscape:cy="393.17687"
     inkscape:document-units="mm"
     inkscape:current-layer="layer1"
     showgrid="false"
     inkscape:window-width="1920"
     inkscape:window-height="1017"
     inkscape:window-x="-8"
     inkscape:window-y="-8"
     inkscape:window-maximized="1" />
  <metadata
     id="metadata5">
    <rdf:RDF>
      <cc:Work
         rdf:about="">
        <dc:format>image/svg+xml</dc:format>
        <dc:type
           rdf:resource="http://purl.org/dc/dcmitype/StillImage" />
        <dc:title></dc:title>
      </cc:Work>
    </rdf:RDF>
  </metadata>
  <g
     inkscape:label="Layer 1"
     inkscape:groupmode="layer"
     id="layer1"
     transform="translate(88.284471,-222.86138)">
    <g
       id="g971"
       transform="matrix(0.12711788,0,0,0.13888909,-92.352162,217.02813)">
      <path
         id="path953"
         d="m 74,146 c -7.719,0 -14,6.281 -14,14 0,7.719 6.281,14 14,14 7.719,0 14,-6.281 14,-14 0,-7.719 -6.281,-14 -14,-14 z m 0,20 c -3.309,0 -6,-2.691 -6,-6 0,-3.309 2.691,-6 6,-6 3.309,0 6,2.691 6,6 0,3.309 -2.691,6 -6,6 z"
         inkscape:connector-curvature="0" />
      <path
         id="path955"
         d="m 224.329,236.115 c -2.362,0 -4.276,1.915 -4.276,4.277 0,2.362 1.915,4.276 4.276,4.276 2.361,0 4.277,-1.915 4.277,-4.276 0,-2.361 -1.916,-4.277 -4.277,-4.277 z"
         inkscape:connector-curvature="0" />
      <path
         id="path957"
         d="m 48.329,104.115 c -2.362,0 -4.276,1.915 -4.276,4.277 0,2.362 1.915,4.276 4.276,4.276 2.361,0 4.277,-1.915 4.277,-4.276 0,-2.361 -1.916,-4.277 -4.277,-4.277 z"
         inkscape:connector-curvature="0" />
      <path
         id="path959"
         d="m 244,166 v 8 c 0,2.209 1.791,4 4,4 2.209,0 4,-1.791 4,-4 v -8 c 0,-2.209 -1.791,-4 -4,-4 -2.209,0 -4,1.791 -4,4 z"
         inkscape:connector-curvature="0" />
      <path
         id="path961"
         d="m 248,186 c -2.209,0 -4,1.791 -4,4 v 8 c 0,2.209 1.791,4 4,4 2.209,0 4,-1.791 4,-4 v -8 c 0,-2.209 -1.791,-4 -4,-4 z"
         inkscape:connector-curvature="0" />
      <path
         id="path963"
         d="m 240,178 h -8 c -2.209,0 -4,1.791 -4,4 0,2.209 1.791,4 4,4 h 8 c 2.209,0 4,-1.791 4,-4 0,-2.209 -1.791,-4 -4,-4 z"
         inkscape:connector-curvature="0" />
      <path
         id="path965"
         d="m 264,178 h -8 c -2.209,0 -4,1.791 -4,4 0,2.209 1.791,4 4,4 h 8 c 2.209,0 4,-1.791 4,-4 0,-2.209 -1.791,-4 -4,-4 z"
         inkscape:connector-curvature="0" />
      <path
         id="path967"
         d="M 182.643,181.957 H 168 c -2.209,0 -4,1.791 -4,4 v 26.391 c 0,9.734 7.918,17.652 17.652,17.652 h 0.695 c 9.734,0 17.652,-7.918 17.652,-17.652 V 199.315 C 200,189.744 192.213,181.957 182.643,181.957 Z M 192,212.348 c 0,5.322 -4.33,9.652 -9.652,9.652 h -0.695 c -5.322,0 -9.652,-4.33 -9.652,-9.652 v -22.391 h 10.643 c 5.16,0 9.357,4.197 9.357,9.357 v 13.034 z"
         inkscape:connector-curvature="0" />
      <path
         id="path969"
         d="m 234.69,135.205 c 0.527,-2.08 0.199,-4.232 -0.924,-6.059 -1.971,-3.211 -5.963,-4.578 -9.486,-3.25 l -47.904,18.025 V 127.552 L 266.374,61.22 c 1.33,-0.98 1.92,-2.68 1.486,-4.273 -0.436,-1.594 -1.807,-2.758 -3.449,-2.926 l -5.768,-0.594 c -8.219,-0.844 -16.391,0.814 -23.633,4.799 L 154.668,102.606 66.377,51.444 C 60.445,47.969 54.023,45.526 47.289,44.18 L 36.785,42.078 c -1.82,-0.365 -3.643,0.566 -4.418,2.248 -0.775,1.682 -0.295,3.674 1.16,4.818 l 92.083,72.376 7.406,128.137 c 0.271,4.678 4.154,8.342 8.84,8.342 4.545,0 8.328,-3.408 8.805,-7.928 l 7.105,-67.713 73.227,-42.266 c 1.857,-1.072 3.171,-2.808 3.697,-4.887 z m 4.183,-69.972 c 4.338,-2.389 9.094,-3.736 13.973,-3.98 l -80.134,59.062 -12.266,-11.758 z M 62.35,58.356 144.393,105.899 129.807,114.644 52.42,53.819 c 3.444,1.166 6.764,2.681 9.93,4.537 z M 152,176.45 c -1.109,0.641 -1.844,1.773 -1.979,3.047 l -7.318,69.74 c -0.088,0.887 -1.646,0.848 -1.699,-0.039 l -7.371,-127.521 17.181,-10.3 17.561,15.928 v 22.397 c 0,1.312 0.645,2.541 1.723,3.289 1.08,0.744 2.459,0.916 3.686,0.455 l 53.209,-20.281 z"
         inkscape:connector-curvature="0" />
    </g>
  </g>
</svg>
