<?xml version="1.0" encoding="UTF-8" standalone="no"?>
<!-- Created with Inkscape (http://www.inkscape.org/) -->

<svg
   xmlns:dc="http://purl.org/dc/elements/1.1/"
   xmlns:cc="http://creativecommons.org/ns#"
   xmlns:rdf="http://www.w3.org/1999/02/22-rdf-syntax-ns#"
   xmlns:svg="http://www.w3.org/2000/svg"
   xmlns="http://www.w3.org/2000/svg"
   xmlns:sodipodi="http://sodipodi.sourceforge.net/DTD/sodipodi-0.dtd"
   xmlns:inkscape="http://www.inkscape.org/namespaces/inkscape"
   width="30mm"
   height="30mm"
   viewBox="0 0 30 30"
   version="1.1"
   id="svg8"
   inkscape:version="0.92.4 (5da689c313, 2019-01-14)"
   sodipodi:docname="instagram-icon.svg">
  <defs
     id="defs2" />
  <sodipodi:namedview
     id="base"
     pagecolor="#ffffff"
     bordercolor="#666666"
     borderopacity="1.0"
     inkscape:pageopacity="0.0"
     inkscape:pageshadow="2"
     inkscape:zoom="0.35"
     inkscape:cx="128.96947"
     inkscape:cy="125.16201"
     inkscape:document-units="mm"
     inkscape:current-layer="layer1"
     showgrid="false"
     inkscape:window-width="1920"
     inkscape:window-height="1017"
     inkscape:window-x="-8"
     inkscape:window-y="-8"
     inkscape:window-maximized="1" />
  <metadata
     id="metadata5">
    <rdf:RDF>
      <cc:Work
         rdf:about="">
        <dc:format>image/svg+xml</dc:format>
        <dc:type
           rdf:resource="http://purl.org/dc/dcmitype/StillImage" />
        <dc:title></dc:title>
      </cc:Work>
    </rdf:RDF>
  </metadata>
  <g
     inkscape:label="Layer 1"
     inkscape:groupmode="layer"
     id="layer1"
     transform="translate(-107.34575,-223.84019)">
    <g
       id="g1537"
       transform="matrix(0.05859375,0,0,0.05859375,107.34575,223.84019)">
      <path
         id="path1520"
         d="M 437,0 H 75 C 33.648438,0 0,33.648438 0,75 v 362 c 0,41.35156 33.648438,75 75,75 h 362 c 41.35156,0 75,-33.64844 75,-75 V 75 C 512,33.648438 478.35156,0 437,0 Z M 257,390 c -74.44141,0 -135,-60.55859 -135,-135 0,-74.44141 60.55859,-135 135,-135 74.44141,0 135,60.55859 135,135 0,74.44141 -60.55859,135 -135,135 z M 407,150 c -24.8125,0 -45,-20.1875 -45,-45 0,-24.8125 20.1875,-45 45,-45 24.8125,0 45,20.1875 45,45 0,24.8125 -20.1875,45 -45,45 z m 0,0"
         inkscape:connector-curvature="0" />
      <path
         id="path1522"
         d="m 407,90 c -8.27734,0 -15,6.722656 -15,15 0,8.27734 6.72266,15 15,15 8.27734,0 15,-6.72266 15,-15 0,-8.277344 -6.72266,-15 -15,-15 z m 0,0"
         inkscape:connector-curvature="0" />
      <path
         id="path1524"
         d="m 257,150 c -57.89063,0 -105,47.10937 -105,105 0,57.89062 47.10937,105 105,105 57.89062,0 105,-47.10938 105,-105 0,-57.89063 -47.10938,-105 -105,-105 z m 0,0"
         inkscape:connector-curvature="0" />
    </g>
  </g>
</svg>
