<?xml version="1.0" standalone="no"?>
<!DOCTYPE svg PUBLIC "-//W3C//DTD SVG 20010904//EN"
 "http://www.w3.org/TR/2001/REC-SVG-20010904/DTD/svg10.dtd">
<svg version="1.0" xmlns="http://www.w3.org/2000/svg"
 width="411.000000pt" height="146.000000pt" viewBox="0 0 411.000000 146.000000"
 preserveAspectRatio="xMidYMid meet">

<g transform="translate(0.000000,146.000000) scale(0.100000,-0.100000)"
fill="#000000" stroke="none">
<path d="M2455 1436 c-80 -19 -142 -54 -210 -118 -125 -116 -167 -215 -166
-393 0 -142 30 -256 75 -294 8 -7 42 -15 76 -18 71 -7 73 -3 31 71 -48 84 -64
155 -59 265 3 77 9 107 30 154 77 165 271 270 440 239 180 -34 311 -171 337
-353 15 -107 -1 -193 -54 -300 -19 -38 -35 -71 -35 -74 0 -9 73 -5 112 5 33
10 39 17 67 85 17 40 31 76 31 79 0 2 6 17 13 33 10 24 13 -3 17 -182 l5 -210
58 -3 57 -3 1 183 0 183 114 93 c63 51 120 95 127 97 21 8 57 -35 243 -282 94
-125 181 -235 195 -245 27 -19 140 -37 140 -22 0 5 -73 108 -162 229 -192 263
-278 391 -278 415 0 27 82 112 241 251 78 68 136 125 129 127 -6 2 -37 2 -69
0 -73 -5 -96 -21 -375 -261 -122 -104 -237 -202 -257 -218 l-37 -29 -6 23 c-3
12 -6 127 -6 255 l0 232 -60 0 -60 0 0 -225 c0 -124 -4 -225 -8 -225 -4 0 -16
26 -26 58 -63 207 -194 339 -373 377 -82 18 -229 18 -298 1z"/>
<path d="M94 646 c-59 -26 -102 -107 -90 -171 13 -68 85 -125 158 -125 46 0
107 38 130 80 24 43 19 131 -10 169 -40 55 -122 75 -188 47z m147 -47 c37 -39
54 -100 38 -131 -61 -119 -187 -126 -234 -13 -20 46 -5 106 35 147 24 23 37
28 80 28 45 0 56 -4 81 -31z"/>
<path d="M1375 645 c-35 -19 -45 -32 -45 -62 0 -32 46 -60 129 -79 103 -23
142 -71 89 -108 -38 -27 -80 -29 -143 -7 -77 27 -94 28 -70 1 37 -40 145 -52
204 -22 45 22 75 63 67 90 -10 30 -65 61 -131 73 -87 16 -105 25 -105 52 0 45
91 62 164 32 29 -13 36 -13 36 -2 0 36 -144 59 -195 32z"/>
<path d="M396 627 c-3 -12 -6 -75 -6 -139 0 -106 2 -118 19 -128 24 -12 171
-13 191 0 25 16 4 22 -90 28 l-90 5 0 123 c0 115 -10 162 -24 111z"/>
<path d="M690 500 l0 -150 98 1 c166 1 179 26 19 38 l-92 6 -3 38 c-4 52 11
67 69 67 26 0 50 4 53 9 7 10 -27 21 -65 21 -30 0 -45 14 -53 50 -10 40 5 50
90 59 l79 8 -97 2 -98 1 0 -150z"/>
<path d="M1006 628 c-9 -36 -7 -241 4 -258 7 -11 11 -9 19 13 6 16 11 41 11
56 0 16 9 36 23 48 41 37 53 35 91 -15 19 -26 51 -63 71 -82 32 -30 36 -31 25
-10 -7 14 -36 58 -64 98 l-50 73 47 46 c88 84 35 62 -75 -33 -28 -24 -55 -44
-60 -44 -4 0 -8 15 -8 34 0 45 -11 96 -20 96 -4 0 -10 -10 -14 -22z"/>
<path d="M1697 628 c-10 -34 -8 -241 2 -256 15 -24 21 14 21 136 0 116 -11
169 -23 120z"/>
<path d="M1780 644 c0 -4 16 -28 35 -54 47 -64 65 -110 65 -167 0 -48 13 -83
26 -71 3 4 10 38 14 76 8 78 8 77 63 150 22 29 37 56 33 59 -3 4 -31 -18 -62
-48 l-55 -54 -50 58 c-45 51 -69 69 -69 51z"/>
<path d="M2255 531 l-40 -6 75 -48 c41 -26 103 -56 138 -67 123 -38 335 -20
449 39 41 21 131 91 116 91 -4 0 -80 -7 -168 -15 -180 -17 -332 -19 -367 -6
-33 12 -156 20 -203 12z"/>
<path d="M3281 180 c1 -68 4 -96 9 -80 4 14 8 37 9 52 2 53 23 44 108 -46 l83
-88 0 81 c0 47 -4 81 -10 81 -5 0 -10 -23 -10 -52 l0 -52 -68 75 c-38 41 -81
88 -95 104 l-26 30 0 -105z"/>
<path d="M2235 258 c-11 -6 -42 -31 -69 -55 -26 -23 -52 -43 -57 -43 -5 0 -13
15 -18 33 -7 26 -9 16 -9 -53 0 -56 2 -76 7 -59 24 78 64 92 109 38 69 -82 81
-94 87 -88 3 4 -17 37 -45 73 -27 37 -50 70 -50 73 0 3 16 26 36 49 19 24 34
44 32 44 -2 0 -12 -6 -23 -12z"/>
<path d="M2376 251 c-78 -51 -74 -137 9 -210 44 -39 86 -41 138 -6 41 28 67
71 67 110 0 39 -38 105 -66 115 -43 17 -116 12 -148 -9z m142 -21 c62 -38 65
-99 8 -156 -61 -61 -105 -52 -164 30 -28 40 -23 72 18 116 34 37 88 40 138 10z"/>
<path d="M2672 170 c1 -58 3 -82 5 -55 7 110 4 110 106 1 l92 -99 -4 104 c-4
95 -5 100 -12 50 -4 -29 -11 -57 -17 -63 -6 -6 -39 23 -91 79 l-81 87 2 -104z"/>
<path d="M3003 258 c-27 -13 -53 -66 -53 -107 0 -141 177 -194 239 -72 12 22
21 52 21 66 0 38 -25 90 -51 109 -27 18 -121 21 -156 4z m130 -19 c31 -14 47
-48 47 -100 0 -76 -82 -129 -146 -94 -64 34 -83 153 -31 190 25 18 95 20 130
4z"/>
<path d="M3622 254 c-56 -39 -69 -132 -26 -184 54 -64 116 -76 171 -34 42 32
63 72 63 121 0 45 -20 77 -60 98 -38 20 -119 19 -148 -1z m154 -38 c49 -49 47
-86 -10 -142 -26 -26 -53 -44 -66 -44 -13 0 -40 18 -66 44 -35 34 -44 50 -44
77 1 56 50 99 113 99 31 0 46 -7 73 -34z"/>
<path d="M3870 259 c0 -22 103 -222 116 -226 12 -4 70 100 104 187 30 76 3 48
-52 -55 -24 -44 -48 -79 -53 -78 -6 1 -28 38 -50 82 -43 86 -65 116 -65 90z"/>
</g>
</svg>
