<?xml version="1.0" encoding="UTF-8" standalone="no"?>
<!-- Created with Inkscape (http://www.inkscape.org/) -->

<svg
   xmlns:dc="http://purl.org/dc/elements/1.1/"
   xmlns:cc="http://creativecommons.org/ns#"
   xmlns:rdf="http://www.w3.org/1999/02/22-rdf-syntax-ns#"
   xmlns:svg="http://www.w3.org/2000/svg"
   xmlns="http://www.w3.org/2000/svg"
   xmlns:sodipodi="http://sodipodi.sourceforge.net/DTD/sodipodi-0.dtd"
   xmlns:inkscape="http://www.inkscape.org/namespaces/inkscape"
   width="50mm"
   height="50mm"
   viewBox="0 0 50 50"
   version="1.1"
   id="svg8"
   inkscape:version="0.92.4 (5da689c313, 2019-01-14)"
   sodipodi:docname="note.svg">
  <defs
     id="defs2" />
  <sodipodi:namedview
     id="base"
     pagecolor="#ffffff"
     bordercolor="#666666"
     borderopacity="1.0"
     inkscape:pageopacity="0.0"
     inkscape:pageshadow="2"
     inkscape:zoom="0.35"
     inkscape:cx="-471.42857"
     inkscape:cy="248.57143"
     inkscape:document-units="mm"
     inkscape:current-layer="layer1"
     showgrid="false"
     inkscape:window-width="1920"
     inkscape:window-height="1017"
     inkscape:window-x="-8"
     inkscape:window-y="-8"
     inkscape:window-maximized="1" />
  <metadata
     id="metadata5">
    <rdf:RDF>
      <cc:Work
         rdf:about="">
        <dc:format>image/svg+xml</dc:format>
        <dc:type
           rdf:resource="http://purl.org/dc/dcmitype/StillImage" />
        <dc:title></dc:title>
      </cc:Work>
    </rdf:RDF>
  </metadata>
  <g
     inkscape:label="Layer 1"
     inkscape:groupmode="layer"
     id="layer1"
     transform="translate(-97.895841,-164.60119)">
    <g
       id="g5008"
       transform="matrix(0.10416667,0,0,0.10416667,97.895841,164.60119)">
      <path
         id="path4875"
         d="M 416,40 C 416,22.328 401.672,8 384,8 H 48 V 64 H 71.144 72 c 5.816,0 10.856,3.136 13.664,7.776 0.136,0.224 0.248,0.456 0.376,0.688 0.296,0.544 0.592,1.088 0.824,1.672 0.224,0.576 0.392,1.176 0.552,1.776 0.096,0.36 0.216,0.712 0.288,1.088 0.024,0.104 0.064,0.2 0.08,0.312 C 87.84,77.664 87.8,78 87.84,78.352 87.888,78.904 88,79.44 88,80 c 0,0.184 -0.048,0.352 -0.056,0.536 -0.016,0.48 -0.088,0.952 -0.144,1.424 -0.08,0.656 -0.176,1.304 -0.336,1.928 -0.112,0.464 -0.264,0.904 -0.416,1.352 -0.208,0.6 -0.44,1.176 -0.72,1.744 -0.208,0.416 -0.424,0.824 -0.664,1.224 -0.32,0.536 -0.672,1.04 -1.056,1.536 -0.28,0.368 -0.568,0.728 -0.88,1.064 -0.424,0.464 -0.888,0.88 -1.368,1.288 -0.344,0.296 -0.672,0.592 -1.04,0.856 -0.536,0.384 -1.104,0.704 -1.68,1.024 -0.376,0.208 -0.728,0.432 -1.12,0.608 -0.664,0.296 -1.368,0.504 -2.08,0.712 -0.352,0.104 -0.696,0.248 -1.056,0.328 C 74.288,95.864 73.16,96 72,96 H 48 v 48 H 71.144 72 c 5.816,0 10.856,3.136 13.664,7.776 0.136,0.224 0.248,0.456 0.376,0.688 0.296,0.544 0.592,1.088 0.824,1.672 0.224,0.576 0.392,1.176 0.552,1.776 0.096,0.36 0.216,0.712 0.288,1.088 0.024,0.104 0.064,0.2 0.08,0.312 0.056,0.352 0.016,0.688 0.056,1.04 0.048,0.552 0.16,1.088 0.16,1.648 0,0.184 -0.048,0.352 -0.056,0.536 -0.016,0.48 -0.088,0.952 -0.144,1.424 -0.08,0.656 -0.176,1.304 -0.336,1.928 -0.112,0.464 -0.264,0.904 -0.416,1.352 -0.208,0.6 -0.44,1.176 -0.72,1.744 -0.208,0.416 -0.424,0.824 -0.664,1.224 -0.32,0.536 -0.672,1.04 -1.056,1.536 -0.28,0.368 -0.568,0.728 -0.88,1.064 -0.424,0.464 -0.888,0.88 -1.368,1.288 -0.344,0.296 -0.672,0.592 -1.04,0.856 -0.536,0.384 -1.104,0.704 -1.68,1.024 -0.376,0.208 -0.728,0.432 -1.12,0.608 -0.664,0.296 -1.368,0.504 -2.08,0.712 -0.352,0.104 -0.696,0.248 -1.056,0.328 C 74.288,175.864 73.16,176 72,176 H 48 v 48 H 71.144 72 c 5.816,0 10.856,3.136 13.664,7.776 0.136,0.224 0.248,0.456 0.376,0.688 0.296,0.544 0.592,1.088 0.824,1.672 0.224,0.576 0.392,1.176 0.552,1.776 0.096,0.36 0.216,0.712 0.288,1.088 0.024,0.104 0.064,0.2 0.08,0.312 0.056,0.352 0.016,0.688 0.056,1.04 0.048,0.552 0.16,1.088 0.16,1.648 0,0.184 -0.048,0.352 -0.056,0.536 -0.016,0.48 -0.088,0.952 -0.144,1.424 -0.08,0.656 -0.176,1.304 -0.336,1.928 -0.112,0.464 -0.264,0.904 -0.416,1.352 -0.208,0.6 -0.44,1.176 -0.72,1.744 -0.208,0.416 -0.424,0.824 -0.664,1.224 -0.32,0.536 -0.672,1.04 -1.056,1.536 -0.28,0.368 -0.568,0.728 -0.88,1.064 -0.424,0.464 -0.888,0.88 -1.368,1.288 -0.344,0.296 -0.672,0.592 -1.04,0.856 -0.536,0.384 -1.104,0.704 -1.68,1.024 -0.376,0.208 -0.728,0.432 -1.12,0.608 -0.664,0.296 -1.368,0.504 -2.08,0.712 -0.352,0.104 -0.696,0.248 -1.056,0.328 C 74.288,255.864 73.16,256 72,256 H 48 v 48 H 71.144 72 c 5.816,0 10.856,3.136 13.664,7.776 0.136,0.224 0.248,0.456 0.376,0.688 0.296,0.544 0.592,1.088 0.824,1.672 0.224,0.576 0.392,1.176 0.552,1.776 0.096,0.36 0.216,0.712 0.288,1.088 0.024,0.104 0.064,0.2 0.08,0.312 0.056,0.352 0.016,0.688 0.056,1.04 0.048,0.552 0.16,1.088 0.16,1.648 0,0.184 -0.048,0.352 -0.056,0.536 -0.016,0.48 -0.088,0.952 -0.144,1.424 -0.08,0.656 -0.176,1.304 -0.336,1.928 -0.112,0.464 -0.264,0.904 -0.416,1.352 -0.208,0.6 -0.44,1.176 -0.72,1.744 -0.208,0.416 -0.424,0.824 -0.664,1.224 -0.32,0.536 -0.672,1.04 -1.056,1.536 -0.28,0.368 -0.568,0.728 -0.88,1.064 -0.424,0.464 -0.888,0.88 -1.368,1.288 -0.344,0.296 -0.672,0.592 -1.04,0.856 -0.536,0.384 -1.104,0.704 -1.68,1.024 -0.376,0.208 -0.728,0.432 -1.12,0.608 -0.664,0.296 -1.368,0.504 -2.08,0.712 -0.352,0.104 -0.696,0.248 -1.056,0.328 C 74.288,335.864 73.16,336 72,336 H 48 v 48 H 71.144 72 c 5.816,0 10.856,3.136 13.664,7.776 0.136,0.224 0.248,0.456 0.376,0.688 0.296,0.544 0.592,1.088 0.824,1.672 0.224,0.576 0.392,1.176 0.552,1.776 0.096,0.36 0.216,0.712 0.288,1.088 0.024,0.104 0.064,0.2 0.08,0.312 0.056,0.352 0.016,0.688 0.056,1.04 0.048,0.552 0.16,1.088 0.16,1.648 0,0.184 -0.048,0.352 -0.056,0.536 -0.016,0.48 -0.088,0.952 -0.144,1.424 -0.08,0.656 -0.176,1.304 -0.336,1.928 -0.112,0.464 -0.264,0.904 -0.416,1.352 -0.208,0.6 -0.44,1.176 -0.72,1.744 -0.208,0.416 -0.424,0.824 -0.664,1.224 -0.32,0.536 -0.672,1.04 -1.056,1.536 -0.28,0.368 -0.568,0.728 -0.88,1.064 -0.424,0.464 -0.888,0.88 -1.368,1.288 -0.344,0.296 -0.672,0.592 -1.04,0.856 -0.536,0.384 -1.104,0.704 -1.68,1.024 -0.376,0.208 -0.728,0.432 -1.12,0.608 -0.664,0.296 -1.368,0.504 -2.08,0.712 -0.352,0.104 -0.696,0.248 -1.056,0.328 C 74.288,415.864 73.16,416 72,416 H 48 v 56 h 336 c 17.672,0 32,-14.328 32,-32 V 424 376 Z M 128,64 h 64 v 64 h -64 z m 0,104 h 64 v 64 h -64 z m 0,104 h 64 v 64 H 128 Z M 384,424 H 176 l -56,-24 56,-24 h 208 z"
         style="fill:#f9ecde"
         inkscape:connector-curvature="0" />
      <g
         id="g4887">
	<path
   id="path4877"
   d="m 75.384,95.624 c 0.368,-0.08 0.704,-0.224 1.056,-0.328 0.712,-0.208 1.416,-0.416 2.08,-0.712 0.392,-0.176 0.752,-0.408 1.12,-0.608 0.576,-0.32 1.152,-0.64 1.68,-1.024 0.368,-0.264 0.696,-0.568 1.04,-0.856 0.48,-0.408 0.936,-0.824 1.368,-1.288 0.312,-0.336 0.6,-0.696 0.88,-1.064 0.384,-0.496 0.736,-1 1.056,-1.536 0.24,-0.4 0.456,-0.808 0.664,-1.224 0.272,-0.568 0.504,-1.144 0.72,-1.744 0.152,-0.448 0.304,-0.888 0.416,-1.352 0.16,-0.632 0.256,-1.272 0.336,-1.928 0.056,-0.472 0.128,-0.936 0.144,-1.424 C 87.952,80.352 88,80.184 88,80 88,79.44 87.888,78.904 87.832,78.352 87.8,78 87.84,77.664 87.776,77.312 87.76,77.2 87.712,77.104 87.696,77 87.624,76.624 87.504,76.28 87.408,75.912 87.248,75.312 87.08,74.704 86.856,74.136 86.624,73.552 86.328,73.016 86.032,72.464 85.904,72.232 85.792,72 85.656,71.776 82.856,67.136 77.816,64 72,64 H 71.144 48 24 c -8.84,0 -16,7.16 -16,16 0,8.84 7.16,16 16,16 h 24 24 c 1.16,0 2.288,-0.136 3.384,-0.376 z"
   style="fill:#66cedb"
   inkscape:connector-curvature="0" />

	<path
   id="path4879"
   d="m 75.384,175.624 c 0.368,-0.08 0.704,-0.224 1.056,-0.328 0.712,-0.208 1.416,-0.416 2.08,-0.712 0.392,-0.176 0.752,-0.408 1.12,-0.608 0.576,-0.32 1.152,-0.64 1.68,-1.024 0.368,-0.264 0.696,-0.568 1.04,-0.856 0.48,-0.408 0.936,-0.824 1.368,-1.288 0.312,-0.336 0.6,-0.696 0.88,-1.064 0.384,-0.496 0.736,-1 1.056,-1.536 0.24,-0.4 0.456,-0.808 0.664,-1.224 0.272,-0.568 0.504,-1.144 0.72,-1.744 0.152,-0.448 0.304,-0.888 0.416,-1.352 0.16,-0.632 0.256,-1.272 0.336,-1.928 0.056,-0.472 0.128,-0.936 0.144,-1.424 C 87.952,160.352 88,160.184 88,160 88,159.44 87.888,158.904 87.832,158.352 87.8,158 87.84,157.664 87.776,157.312 87.76,157.2 87.712,157.104 87.696,157 c -0.072,-0.376 -0.192,-0.72 -0.288,-1.088 -0.16,-0.6 -0.328,-1.208 -0.552,-1.776 -0.232,-0.584 -0.528,-1.12 -0.824,-1.672 C 85.904,152.232 85.792,152 85.656,151.776 82.856,147.136 77.816,144 72,144 H 71.144 48 24 c -8.84,0 -16,7.16 -16,16 0,8.84 7.16,16 16,16 h 24 24 c 1.16,0 2.288,-0.136 3.384,-0.376 z"
   style="fill:#66cedb"
   inkscape:connector-curvature="0" />

	<path
   id="path4881"
   d="m 75.384,255.624 c 0.368,-0.08 0.704,-0.224 1.056,-0.328 0.712,-0.208 1.416,-0.416 2.08,-0.712 0.392,-0.176 0.752,-0.408 1.12,-0.608 0.576,-0.32 1.152,-0.64 1.68,-1.024 0.368,-0.264 0.696,-0.568 1.04,-0.856 0.48,-0.408 0.936,-0.824 1.368,-1.288 0.312,-0.336 0.6,-0.696 0.88,-1.064 0.384,-0.496 0.736,-1 1.056,-1.536 0.24,-0.4 0.456,-0.808 0.664,-1.224 0.272,-0.568 0.504,-1.144 0.72,-1.744 0.152,-0.448 0.304,-0.888 0.416,-1.352 0.16,-0.632 0.256,-1.272 0.336,-1.928 0.056,-0.472 0.128,-0.936 0.144,-1.424 C 87.952,240.352 88,240.184 88,240 88,239.44 87.888,238.904 87.832,238.352 87.8,238 87.84,237.664 87.776,237.312 87.76,237.2 87.712,237.104 87.696,237 c -0.072,-0.376 -0.192,-0.72 -0.288,-1.088 -0.16,-0.6 -0.328,-1.208 -0.552,-1.776 -0.232,-0.584 -0.528,-1.12 -0.824,-1.672 C 85.904,232.232 85.792,232 85.656,231.776 82.856,227.136 77.816,224 72,224 H 71.144 48 24 c -8.84,0 -16,7.16 -16,16 0,8.84 7.16,16 16,16 h 24 24 c 1.16,0 2.288,-0.136 3.384,-0.376 z"
   style="fill:#66cedb"
   inkscape:connector-curvature="0" />

	<path
   id="path4883"
   d="m 75.384,335.624 c 0.368,-0.08 0.704,-0.224 1.056,-0.328 0.712,-0.208 1.416,-0.416 2.08,-0.712 0.392,-0.176 0.752,-0.408 1.12,-0.608 0.576,-0.32 1.152,-0.64 1.68,-1.024 0.368,-0.264 0.696,-0.568 1.04,-0.856 0.48,-0.408 0.936,-0.824 1.368,-1.288 0.312,-0.336 0.6,-0.696 0.88,-1.064 0.384,-0.496 0.736,-1 1.056,-1.536 0.24,-0.4 0.456,-0.808 0.664,-1.224 0.272,-0.568 0.504,-1.144 0.72,-1.744 0.152,-0.448 0.304,-0.888 0.416,-1.352 0.16,-0.632 0.256,-1.272 0.336,-1.928 0.056,-0.472 0.128,-0.936 0.144,-1.424 C 87.952,320.352 88,320.184 88,320 88,319.44 87.888,318.904 87.832,318.352 87.8,318 87.84,317.664 87.776,317.312 87.76,317.2 87.712,317.104 87.696,317 c -0.072,-0.376 -0.192,-0.72 -0.288,-1.088 -0.16,-0.6 -0.328,-1.208 -0.552,-1.776 -0.232,-0.584 -0.528,-1.12 -0.824,-1.672 C 85.904,312.232 85.792,312 85.656,311.776 82.856,307.136 77.816,304 72,304 H 71.144 48 24 c -8.84,0 -16,7.16 -16,16 0,8.84 7.16,16 16,16 h 24 24 c 1.16,0 2.288,-0.136 3.384,-0.376 z"
   style="fill:#66cedb"
   inkscape:connector-curvature="0" />

	<path
   id="path4885"
   d="m 75.384,415.624 c 0.368,-0.08 0.704,-0.224 1.056,-0.328 0.712,-0.208 1.416,-0.416 2.08,-0.712 0.392,-0.176 0.752,-0.408 1.12,-0.608 0.576,-0.32 1.152,-0.64 1.68,-1.024 0.368,-0.264 0.696,-0.568 1.04,-0.856 0.48,-0.408 0.936,-0.824 1.368,-1.288 0.312,-0.336 0.6,-0.696 0.88,-1.064 0.384,-0.496 0.736,-1 1.056,-1.536 0.24,-0.4 0.456,-0.808 0.664,-1.224 0.272,-0.568 0.504,-1.144 0.72,-1.744 0.152,-0.448 0.304,-0.888 0.416,-1.352 0.16,-0.632 0.256,-1.272 0.336,-1.928 0.056,-0.472 0.128,-0.936 0.144,-1.424 C 87.952,400.352 88,400.184 88,400 88,399.44 87.888,398.904 87.832,398.352 87.8,398 87.84,397.664 87.776,397.312 87.76,397.2 87.712,397.104 87.696,397 c -0.072,-0.376 -0.192,-0.72 -0.288,-1.088 -0.16,-0.6 -0.328,-1.208 -0.552,-1.776 -0.232,-0.584 -0.528,-1.12 -0.824,-1.672 C 85.904,392.232 85.792,392 85.656,391.776 82.856,387.136 77.816,384 72,384 H 71.144 48 24 c -8.84,0 -16,7.16 -16,16 0,8.84 7.16,16 16,16 h 24 24 c 1.16,0 2.288,-0.136 3.384,-0.376 z"
   style="fill:#66cedb"
   inkscape:connector-curvature="0" />

</g>
      <g
         id="g4893">
	<path
   id="path4889"
   d="m 448,376 h -32 v 48 h 32 c 13.256,0 24,-10.744 24,-24 0,-13.256 -10.744,-24 -24,-24 z"
   style="fill:#f6bf58"
   inkscape:connector-curvature="0" />

	<polygon
   id="polygon4891"
   points="384,424 384,376 176,376 120,400 176,424 "
   style="fill:#f6bf58" />

</g>
      <rect
         id="rect4895"
         height="64"
         width="64"
         style="fill:#66cedb"
         y="272"
         x="128" />
      <rect
         id="rect4897"
         height="64"
         width="64"
         style="fill:#f6bf58"
         y="168"
         x="128" />
      <rect
         id="rect4899"
         height="64"
         width="64"
         style="fill:#66cedb"
         y="64"
         x="128" />
      <g
         id="g4927">
	<path
   id="path4901"
   d="m 24,376 c -13.232,0 -24,10.768 -24,24 0,13.232 10.768,24 24,24 h 16 v 48 c 0,4.416 3.584,8 8,8 h 336 c 22.056,0 40,-17.944 40,-40 v -8 h 24 c 17.648,0 32,-14.352 32,-32 0,-17.648 -14.352,-32 -32,-32 H 424 V 40 C 424,17.944 406.056,0 384,0 H 48 C 43.584,0 40,3.584 40,8 V 56 H 24 C 10.768,56 0,66.768 0,80 c 0,13.232 10.768,24 24,24 h 16 v 32 H 24 c -13.232,0 -24,10.768 -24,24 0,13.232 10.768,24 24,24 h 16 v 32 H 24 c -13.232,0 -24,10.768 -24,24 0,13.232 10.768,24 24,24 h 16 v 32 H 24 c -13.232,0 -24,10.768 -24,24 0,13.232 10.768,24 24,24 h 16 v 32 z m -8,24 c 0,-4.408 3.592,-8 8,-8 h 24 23.144 c 3.04,0 5.784,1.488 7.384,3.648 0.16,0.232 0.336,0.448 0.472,0.696 0.248,0.424 0.384,0.888 0.528,1.352 0.16,0.512 0.272,1.032 0.32,1.584 0.048,0.648 0,1.264 -0.088,1.888 -0.072,0.48 -0.128,0.96 -0.28,1.4 -0.216,0.624 -0.56,1.2 -0.936,1.76 -0.232,0.352 -0.416,0.736 -0.704,1.04 -0.52,0.56 -1.144,0.968 -1.784,1.352 -0.288,0.176 -0.52,0.424 -0.832,0.56 C 74.216,407.736 73.128,408 72,408 H 48 24 c -4.408,0 -8,-3.592 -8,-8 z m 432,-16 c 8.824,0 16,7.176 16,16 0,8.824 -7.176,16 -16,16 H 424 V 384 Z M 168,411.872 140.312,400 168,388.128 Z M 184,384 h 192 v 32 H 184 Z m 208,0 h 16 v 32 H 392 Z M 16,80 c 0,-4.408 3.592,-8 8,-8 h 24 23.144 c 3.04,0 5.784,1.488 7.384,3.648 0.16,0.232 0.336,0.448 0.472,0.696 0.248,0.424 0.384,0.888 0.528,1.352 0.16,0.512 0.272,1.032 0.32,1.584 0.048,0.648 0,1.264 -0.088,1.888 -0.072,0.48 -0.128,0.96 -0.28,1.4 -0.216,0.624 -0.56,1.2 -0.936,1.76 -0.232,0.352 -0.416,0.736 -0.704,1.04 -0.52,0.56 -1.144,0.968 -1.784,1.352 -0.288,0.176 -0.52,0.424 -0.832,0.56 C 74.216,87.736 73.128,88 72,88 H 48 24 c -4.408,0 -8,-3.592 -8,-8 z m 0,80 c 0,-4.408 3.592,-8 8,-8 h 24 23.144 c 3.04,0 5.784,1.488 7.384,3.648 0.16,0.232 0.336,0.448 0.472,0.696 0.248,0.424 0.384,0.888 0.528,1.352 0.16,0.512 0.272,1.032 0.32,1.584 0.048,0.648 0,1.264 -0.088,1.888 -0.072,0.48 -0.128,0.96 -0.28,1.4 -0.216,0.624 -0.56,1.2 -0.936,1.76 -0.232,0.352 -0.416,0.736 -0.704,1.04 -0.52,0.56 -1.144,0.968 -1.784,1.352 -0.288,0.176 -0.52,0.424 -0.832,0.56 C 74.216,167.736 73.128,168 72,168 H 48 24 c -4.408,0 -8,-3.592 -8,-8 z m 0,80 c 0,-4.408 3.592,-8 8,-8 h 24 23.144 c 3.04,0 5.784,1.488 7.384,3.648 0.16,0.232 0.336,0.448 0.472,0.696 0.248,0.424 0.384,0.888 0.528,1.352 0.16,0.512 0.272,1.032 0.32,1.584 0.048,0.648 0,1.264 -0.088,1.888 -0.072,0.48 -0.128,0.96 -0.28,1.4 -0.216,0.624 -0.56,1.2 -0.936,1.76 -0.232,0.352 -0.416,0.736 -0.704,1.04 -0.52,0.56 -1.144,0.968 -1.784,1.352 -0.288,0.176 -0.52,0.424 -0.832,0.56 C 74.216,247.736 73.128,248 72,248 H 48 24 c -4.408,0 -8,-3.592 -8,-8 z m 0,80 c 0,-4.408 3.592,-8 8,-8 h 24 23.144 c 3.04,0 5.784,1.488 7.384,3.648 0.16,0.232 0.336,0.448 0.472,0.696 0.248,0.424 0.384,0.888 0.528,1.352 0.16,0.512 0.272,1.032 0.32,1.584 0.048,0.648 0,1.264 -0.088,1.888 -0.072,0.48 -0.128,0.96 -0.28,1.4 -0.216,0.624 -0.56,1.2 -0.936,1.76 -0.232,0.352 -0.416,0.736 -0.704,1.04 -0.52,0.56 -1.144,0.968 -1.784,1.352 -0.288,0.176 -0.52,0.424 -0.832,0.56 C 74.216,327.736 73.128,328 72,328 H 48 24 c -4.408,0 -8,-3.592 -8,-8 z m 40,24 h 16 c 1.72,0 3.4,-0.2 5.016,-0.544 0.504,-0.112 0.976,-0.32 1.472,-0.456 1.088,-0.312 2.176,-0.624 3.2,-1.08 0.6,-0.264 1.152,-0.624 1.736,-0.944 0.856,-0.464 1.704,-0.928 2.488,-1.496 0.576,-0.416 1.104,-0.888 1.648,-1.36 0.712,-0.616 1.4,-1.24 2.04,-1.928 0.216,-0.232 0.48,-0.408 0.688,-0.648 0.272,-0.312 0.44,-0.688 0.688,-1.016 0.576,-0.752 1.104,-1.536 1.592,-2.352 0.36,-0.6 0.696,-1.2 1,-1.832 0.424,-0.88 0.768,-1.8 1.088,-2.736 0.208,-0.624 0.432,-1.24 0.584,-1.888 0.24,-0.976 0.368,-1.976 0.488,-2.992 0.08,-0.672 0.184,-1.328 0.2,-2.008 C 95.936,320.472 96,320.248 96,320 c 0,-0.8 -0.16,-1.552 -0.24,-2.336 -0.048,-0.544 0,-1.088 -0.088,-1.64 -0.024,-0.168 -0.096,-0.312 -0.128,-0.472 -0.112,-0.584 -0.296,-1.128 -0.448,-1.696 -0.232,-0.856 -0.456,-1.712 -0.784,-2.528 -0.32,-0.824 -0.728,-1.592 -1.128,-2.368 -0.216,-0.4 -0.408,-0.816 -0.648,-1.2 C 88.336,300.752 80.744,296 72,296 H 71.144 56 v -32 h 16 c 1.72,0 3.4,-0.2 5.016,-0.544 0.504,-0.112 0.976,-0.32 1.472,-0.456 1.088,-0.312 2.176,-0.624 3.2,-1.08 0.6,-0.264 1.152,-0.624 1.736,-0.944 0.856,-0.464 1.704,-0.928 2.488,-1.496 0.576,-0.416 1.104,-0.888 1.648,-1.36 0.712,-0.616 1.4,-1.24 2.04,-1.928 0.216,-0.232 0.48,-0.408 0.688,-0.648 0.272,-0.312 0.44,-0.688 0.688,-1.016 0.576,-0.752 1.104,-1.536 1.592,-2.352 0.36,-0.6 0.696,-1.2 1,-1.832 0.424,-0.88 0.768,-1.8 1.088,-2.736 0.208,-0.624 0.432,-1.24 0.584,-1.888 0.24,-0.976 0.368,-1.976 0.488,-2.992 0.08,-0.672 0.184,-1.328 0.2,-2.008 C 95.936,240.472 96,240.248 96,240 c 0,-0.8 -0.16,-1.552 -0.24,-2.336 -0.048,-0.544 0,-1.088 -0.088,-1.64 -0.024,-0.168 -0.096,-0.312 -0.128,-0.472 -0.112,-0.584 -0.296,-1.128 -0.448,-1.696 -0.232,-0.856 -0.456,-1.712 -0.784,-2.528 -0.32,-0.824 -0.728,-1.592 -1.128,-2.368 -0.216,-0.4 -0.408,-0.816 -0.648,-1.2 C 88.336,220.752 80.744,216 72,216 H 71.144 56 v -32 h 16 c 1.72,0 3.4,-0.2 5.016,-0.544 0.504,-0.112 0.976,-0.32 1.472,-0.456 1.088,-0.312 2.176,-0.624 3.2,-1.08 0.6,-0.264 1.152,-0.624 1.736,-0.944 0.856,-0.464 1.704,-0.928 2.488,-1.496 0.576,-0.416 1.104,-0.888 1.648,-1.36 0.712,-0.616 1.4,-1.24 2.04,-1.928 0.216,-0.232 0.48,-0.408 0.688,-0.648 0.272,-0.312 0.44,-0.688 0.688,-1.016 0.576,-0.752 1.104,-1.536 1.592,-2.352 0.36,-0.6 0.696,-1.2 1,-1.832 0.424,-0.88 0.768,-1.8 1.088,-2.736 0.208,-0.624 0.432,-1.24 0.584,-1.888 0.24,-0.976 0.368,-1.976 0.488,-2.992 0.08,-0.672 0.184,-1.328 0.2,-2.008 C 95.936,160.472 96,160.248 96,160 c 0,-0.8 -0.16,-1.552 -0.24,-2.336 -0.048,-0.544 0,-1.088 -0.088,-1.64 -0.024,-0.168 -0.096,-0.312 -0.128,-0.472 -0.112,-0.584 -0.296,-1.128 -0.448,-1.696 -0.232,-0.856 -0.456,-1.712 -0.784,-2.528 -0.32,-0.824 -0.728,-1.592 -1.128,-2.368 -0.216,-0.4 -0.408,-0.816 -0.648,-1.2 C 88.336,140.752 80.744,136 72,136 H 71.144 56 v -32 h 16 c 1.72,0 3.4,-0.2 5.016,-0.544 0.504,-0.112 0.976,-0.32 1.472,-0.456 1.088,-0.312 2.176,-0.624 3.2,-1.08 0.6,-0.264 1.152,-0.624 1.736,-0.944 0.856,-0.464 1.704,-0.928 2.488,-1.496 0.576,-0.416 1.104,-0.888 1.648,-1.36 0.712,-0.616 1.4,-1.24 2.04,-1.928 0.216,-0.232 0.48,-0.408 0.688,-0.648 0.272,-0.312 0.44,-0.688 0.688,-1.016 0.576,-0.752 1.104,-1.536 1.592,-2.352 0.36,-0.6 0.696,-1.2 1,-1.832 0.424,-0.88 0.768,-1.8 1.088,-2.736 0.208,-0.624 0.432,-1.24 0.584,-1.888 0.24,-0.976 0.368,-1.976 0.488,-2.992 0.08,-0.672 0.184,-1.328 0.2,-2.008 C 95.936,80.472 96,80.248 96,80 c 0,-0.8 -0.16,-1.552 -0.24,-2.336 -0.048,-0.544 0,-1.088 -0.088,-1.64 C 95.648,75.856 95.576,75.712 95.544,75.552 95.432,74.968 95.248,74.424 95.096,73.856 94.864,73 94.64,72.144 94.312,71.328 93.992,70.504 93.584,69.736 93.184,68.96 92.968,68.56 92.776,68.144 92.536,67.76 88.336,60.752 80.744,56 72,56 H 71.144 56 V 16 h 328 c 13.232,0 24,10.768 24,24 V 368 H 176 c -1.08,0 -2.16,0.216 -3.152,0.648 l -56,24 C 113.904,393.904 112,396.8 112,400 c 0,3.2 1.904,6.096 4.848,7.352 l 56,24 C 173.84,431.784 174.92,432 176,432 h 232 v 8 c 0,13.232 -10.768,24 -24,24 H 56 v -40 h 16 c 1.72,0 3.4,-0.2 5.016,-0.544 0.504,-0.112 0.976,-0.32 1.472,-0.456 1.088,-0.312 2.176,-0.624 3.2,-1.08 0.6,-0.264 1.152,-0.624 1.736,-0.944 0.856,-0.464 1.704,-0.928 2.488,-1.496 0.576,-0.416 1.104,-0.888 1.648,-1.36 0.712,-0.616 1.4,-1.24 2.04,-1.928 0.216,-0.232 0.48,-0.408 0.688,-0.648 0.272,-0.312 0.44,-0.688 0.688,-1.016 0.576,-0.752 1.104,-1.536 1.592,-2.352 0.36,-0.6 0.696,-1.2 1,-1.832 0.424,-0.88 0.768,-1.8 1.088,-2.736 0.208,-0.624 0.432,-1.24 0.584,-1.888 0.24,-0.976 0.368,-1.976 0.488,-2.992 0.08,-0.672 0.184,-1.328 0.2,-2.008 C 95.936,400.472 96,400.248 96,400 c 0,-0.8 -0.16,-1.552 -0.24,-2.336 -0.048,-0.544 0,-1.088 -0.088,-1.64 -0.024,-0.168 -0.096,-0.312 -0.128,-0.472 -0.112,-0.584 -0.296,-1.128 -0.448,-1.696 -0.232,-0.856 -0.456,-1.712 -0.784,-2.528 -0.32,-0.824 -0.728,-1.592 -1.128,-2.368 -0.216,-0.4 -0.408,-0.816 -0.648,-1.2 C 88.336,380.752 80.744,376 72,376 H 71.144 56 Z"
   style="fill:#010133"
   inkscape:connector-curvature="0" />

	<path
   id="path4903"
   d="m 128,344 h 64 c 4.416,0 8,-3.584 8,-8 v -64 c 0,-4.416 -3.584,-8 -8,-8 h -64 c -4.416,0 -8,3.584 -8,8 v 64 c 0,4.416 3.584,8 8,8 z m 8,-64 h 48 v 48 h -48 z"
   style="fill:#010133"
   inkscape:connector-curvature="0" />

	<rect
   id="rect4905"
   height="16"
   width="160"
   style="fill:#010133"
   y="264"
   x="216" />

	<rect
   id="rect4907"
   height="16"
   width="160"
   style="fill:#010133"
   y="296"
   x="216" />

	<rect
   id="rect4909"
   height="16"
   width="160"
   style="fill:#010133"
   y="328"
   x="216" />

	<path
   id="path4911"
   d="m 128,240 h 64 c 4.416,0 8,-3.584 8,-8 v -64 c 0,-4.416 -3.584,-8 -8,-8 h -64 c -4.416,0 -8,3.584 -8,8 v 64 c 0,4.416 3.584,8 8,8 z m 8,-64 h 48 v 48 h -48 z"
   style="fill:#010133"
   inkscape:connector-curvature="0" />

	<rect
   id="rect4913"
   height="16"
   width="160"
   style="fill:#010133"
   y="160"
   x="216" />

	<rect
   id="rect4915"
   height="16"
   width="160"
   style="fill:#010133"
   y="192"
   x="216" />

	<rect
   id="rect4917"
   height="16"
   width="160"
   style="fill:#010133"
   y="224"
   x="216" />

	<path
   id="path4919"
   d="m 128,136 h 64 c 4.416,0 8,-3.584 8,-8 V 64 c 0,-4.416 -3.584,-8 -8,-8 h -64 c -4.416,0 -8,3.584 -8,8 v 64 c 0,4.416 3.584,8 8,8 z m 8,-64 h 48 v 48 h -48 z"
   style="fill:#010133"
   inkscape:connector-curvature="0" />

	<rect
   id="rect4921"
   height="16"
   width="160"
   style="fill:#010133"
   y="56"
   x="216" />

	<rect
   id="rect4923"
   height="16"
   width="160"
   style="fill:#010133"
   y="88"
   x="216" />

	<rect
   id="rect4925"
   height="16"
   width="160"
   style="fill:#010133"
   y="120"
   x="216" />

</g>
      <g
         id="g4929">
</g>
      <g
         id="g4931">
</g>
      <g
         id="g4933">
</g>
      <g
         id="g4935">
</g>
      <g
         id="g4937">
</g>
      <g
         id="g4939">
</g>
      <g
         id="g4941">
</g>
      <g
         id="g4943">
</g>
      <g
         id="g4945">
</g>
      <g
         id="g4947">
</g>
      <g
         id="g4949">
</g>
      <g
         id="g4951">
</g>
      <g
         id="g4953">
</g>
      <g
         id="g4955">
</g>
      <g
         id="g4957">
</g>
    </g>
  </g>
</svg>
