<?xml version="1.0" encoding="UTF-8" standalone="no"?>
<!-- Created with Inkscape (http://www.inkscape.org/) -->

<svg
   xmlns:dc="http://purl.org/dc/elements/1.1/"
   xmlns:cc="http://creativecommons.org/ns#"
   xmlns:rdf="http://www.w3.org/1999/02/22-rdf-syntax-ns#"
   xmlns:svg="http://www.w3.org/2000/svg"
   xmlns="http://www.w3.org/2000/svg"
   xmlns:sodipodi="http://sodipodi.sourceforge.net/DTD/sodipodi-0.dtd"
   xmlns:inkscape="http://www.inkscape.org/namespaces/inkscape"
   width="29.999969mm"
   height="30.00005mm"
   viewBox="0 0 29.99997 30.00005"
   version="1.1"
   id="svg8"
   inkscape:version="0.92.4 (5da689c313, 2019-01-14)"
   sodipodi:docname="progress-icon.svg">
  <defs
     id="defs2" />
  <sodipodi:namedview
     id="base"
     pagecolor="#ffffff"
     bordercolor="#666666"
     borderopacity="1.0"
     inkscape:pageopacity="0.0"
     inkscape:pageshadow="2"
     inkscape:zoom="0.35"
     inkscape:cx="122.11756"
     inkscape:cy="245.17308"
     inkscape:document-units="mm"
     inkscape:current-layer="layer1"
     showgrid="false"
     inkscape:window-width="1920"
     inkscape:window-height="1017"
     inkscape:window-x="-8"
     inkscape:window-y="-8"
     inkscape:window-maximized="1" />
  <metadata
     id="metadata5">
    <rdf:RDF>
      <cc:Work
         rdf:about="">
        <dc:format>image/svg+xml</dc:format>
        <dc:type
           rdf:resource="http://purl.org/dc/dcmitype/StillImage" />
        <dc:title></dc:title>
      </cc:Work>
    </rdf:RDF>
  </metadata>
  <g
     inkscape:label="Layer 1"
     inkscape:groupmode="layer"
     id="layer1"
     transform="translate(-109.15865,-255.59307)">
    <path
       id="path1264"
       d="m 138.27853,257.76815 -6.12251,-1.71627 v -0.0186 c 0,-0.2431 -0.1976,-0.44021 -0.44132,-0.44021 -0.24371,0 -0.44132,0.19711 -0.44132,0.44021 v 9.13504 h -0.62588 c -0.50288,0 -0.91201,0.40811 -0.91201,0.90973 v 3.98759 h -5.94688 c -0.50288,0 -0.91201,0.4081 -0.91201,0.90972 v 3.98759 h -5.94699 c -0.50288,0 -0.91202,0.40811 -0.91202,0.90973 v 3.98765 h -5.94693 c -0.50288,0 -0.91201,0.4081 -0.91201,0.90972 v 3.9133 c 0,0.50162 0.40913,0.90972 0.91201,0.90972 h 23.49362 c 0.24372,0 0.44132,-0.19711 0.44132,-0.44021 0,-0.24311 -0.1976,-0.44022 -0.44132,-0.44022 h -2.94615 v -14.20684 -4.42781 c 0,-0.0162 0.0132,-0.0294 0.0294,-0.0294 h 5.91756 c 0.0162,0 0.0294,0.0131 0.0294,0.0294 v 18.6053 c 0,0.0162 -0.0132,0.0294 -0.0294,0.0294 h -0.89357 c -0.24371,0 -0.44132,0.19711 -0.44132,0.44022 0,0.2431 0.19761,0.44021 0.44132,0.44021 h 0.89357 c 0.50288,0 0.91201,-0.4081 0.91201,-0.90972 v -18.60536 c 0,-0.50162 -0.40913,-0.90972 -0.91201,-0.90972 h -4.4091 v -3.3665 l 1.14992,-0.32238 c 0.23461,-0.0657 0.37136,-0.30885 0.30545,-0.54287 -0.0659,-0.23403 -0.30951,-0.37061 -0.54423,-0.30469 l -0.91114,0.25541 v -3.92091 l 5.88373,1.64929 c 0.21934,0.0615 0.23638,0.25371 0.23638,0.31119 0,0.0574 -0.0171,0.24967 -0.23638,0.3112 l -3.11932,0.87439 c -0.23461,0.0657 -0.37136,0.30884 -0.30545,0.54287 0.0659,0.23402 0.30933,0.37066 0.54423,0.30468 l 3.11927,-0.87439 c 0.52643,-0.14754 0.88017,-0.61324 0.88017,-1.15869 6e-5,-0.54556 -0.35368,-1.01121 -0.88012,-1.15875 z m -28.23724,26.91516 v -3.91329 c 0,-0.0162 0.0132,-0.0294 0.0294,-0.0294 h 5.94693 v 3.97201 h -5.94699 c -0.0162,0 -0.0294,-0.0132 -0.0294,-0.0294 z m 13.27663,-5.66372 c -0.24372,0 -0.44132,0.19711 -0.44132,0.44022 v 5.25286 h -5.97636 v -4.41216 -4.42781 c 0,-0.0162 0.0132,-0.0294 0.0294,-0.0294 h 5.94699 v 1.59732 c 0,0.24311 0.1976,0.44021 0.44132,0.44021 0.24371,0 0.44132,-0.1971 0.44132,-0.44021 v -6.46534 c 0,-0.0162 0.0132,-0.0294 0.0294,-0.0294 h 5.94693 v 13.76664 h -5.97648 v -5.25286 c 0,-0.24311 -0.19754,-0.44016 -0.44126,-0.44016 z"
       inkscape:connector-curvature="0"
       style="stroke-width:0.05866725" />
  </g>
</svg>
