<?xml version="1.0" encoding="UTF-8" standalone="no"?>
<!-- Created with Inkscape (http://www.inkscape.org/) -->

<svg
   xmlns:dc="http://purl.org/dc/elements/1.1/"
   xmlns:cc="http://creativecommons.org/ns#"
   xmlns:rdf="http://www.w3.org/1999/02/22-rdf-syntax-ns#"
   xmlns:svg="http://www.w3.org/2000/svg"
   xmlns="http://www.w3.org/2000/svg"
   xmlns:sodipodi="http://sodipodi.sourceforge.net/DTD/sodipodi-0.dtd"
   xmlns:inkscape="http://www.inkscape.org/namespaces/inkscape"
   width="35mm"
   height="30mm"
   viewBox="0 0 35 30"
   version="1.1"
   id="svg8"
   inkscape:version="0.92.4 (5da689c313, 2019-01-14)"
   sodipodi:docname="refund.svg">
  <defs
     id="defs2" />
  <sodipodi:namedview
     id="base"
     pagecolor="#ffffff"
     bordercolor="#666666"
     borderopacity="1.0"
     inkscape:pageopacity="0.0"
     inkscape:pageshadow="2"
     inkscape:zoom="0.35"
     inkscape:cx="455.59564"
     inkscape:cy="196.01944"
     inkscape:document-units="mm"
     inkscape:current-layer="layer1"
     showgrid="false"
     inkscape:window-width="1920"
     inkscape:window-height="1017"
     inkscape:window-x="-8"
     inkscape:window-y="-8"
     inkscape:window-maximized="1" />
  <metadata
     id="metadata5">
    <rdf:RDF>
      <cc:Work
         rdf:about="">
        <dc:format>image/svg+xml</dc:format>
        <dc:type
           rdf:resource="http://purl.org/dc/dcmitype/StillImage" />
        <dc:title></dc:title>
      </cc:Work>
    </rdf:RDF>
  </metadata>
  <g
     inkscape:label="Layer 1"
     inkscape:groupmode="layer"
     id="layer1"
     transform="translate(147.37932,-170.69681)">
    <g
       id="g4821"
       transform="matrix(0.56451613,0,0,0.58823529,-147.94384,167.1674)">
      <g
         id="g4807">
        <path
           id="path4805"
           d="M 28.313,27.899 22.376,21.962 C 22.254,21.985 22.129,22 22,22 H 12 c -0.129,0 -0.254,-0.015 -0.376,-0.038 L 5.687,27.899 C 2.664,30.921 1,34.939 1,39.213 V 40 c 0,8.822 7.178,16 16,16 8.822,0 16,-7.178 16,-16 v -0.787 c 0,-4.274 -1.664,-8.292 -4.687,-11.314 z"
           inkscape:connector-curvature="0"
           style="fill:#f0bc5e" />
      </g>
      <g
         id="g4819">
        <path
           id="path4809"
           d="M 62.22,28 C 62.7,27.468 63,26.771 63,26 63,24.346 61.654,23 60,23 H 59 V 7 H 37 v 12.341 c -0.818,0.259 -1.593,0.652 -2.269,1.193 L 31.649,23 h -8.235 l 2,2 h 6.937 l 3.631,-2.904 C 36.864,21.389 37.974,21 39.104,21 H 47 c 0,1.103 -0.897,2 -2,2 h -5.535 l -0.633,0.949 C 37.976,25.233 36.543,26 35,26 v 2 c 0.69,0 1.361,-0.119 2,-0.322 v 11.2 C 36.297,38.724 35.629,38.423 35.063,37.97 l -2.37,-1.896 c 0.18,0.911 0.269,1.847 0.289,2.793 l 0.83,0.664 c 0.921,0.737 2.027,1.207 3.187,1.383 V 57 h 22 V 41 h 1 c 1.654,0 3,-1.346 3,-3 0,-0.771 -0.301,-1.468 -0.78,-2 0.48,-0.532 0.78,-1.229 0.78,-2 0,-0.771 -0.301,-1.468 -0.78,-2 0.48,-0.532 0.78,-1.229 0.78,-2 0,-0.771 -0.3,-1.468 -0.779,-2 z M 61,34 c 0,0.551 -0.448,1 -1,1 h -2 c -0.552,0 -1,-0.449 -1,-1 0,-0.551 0.448,-1 1,-1 h 2 c 0.552,0 1,0.449 1,1 z m -3,-3 c -0.552,0 -1,-0.449 -1,-1 0,-0.551 0.448,-1 1,-1 h 2 c 0.552,0 1,0.449 1,1 0,0.551 -0.448,1 -1,1 z m 3,-5 c 0,0.551 -0.448,1 -1,1 h -2 c -0.552,0 -1,-0.449 -1,-1 0,-0.551 0.448,-1 1,-1 h 2 c 0.552,0 1,0.449 1,1 z M 57,12.899 C 55.044,12.5 53.5,10.956 53.101,9 H 57 Z M 42.899,9 C 42.5,10.956 40.956,12.5 39,12.899 V 9 Z M 39.104,19 C 39.069,19 39.035,19.008 39,19.009 V 14.92 C 42.059,14.479 44.479,12.059 44.92,9 h 6.16 c 0.441,3.059 2.861,5.479 5.92,5.92 v 8.264 c -0.529,0.189 -0.985,0.519 -1.33,0.949 -1.806,-1.77 -4.138,-2.851 -6.676,-3.076 C 48.995,21.038 49,21.02 49,21 49,19.897 48.103,19 47,19 Z M 39,26.639 c 0.573,-0.437 1.084,-0.963 1.496,-1.581 L 40.535,25 H 45 c 1.464,0 2.733,-0.799 3.43,-1.975 2.606,0.122 4.983,1.334 6.611,3.388 0.085,0.607 0.347,1.153 0.739,1.588 -0.48,0.532 -0.78,1.229 -0.78,2 0,0.771 0.301,1.468 0.78,2 -0.48,0.532 -0.78,1.229 -0.78,2 0,0.771 0.301,1.468 0.78,2 -0.392,0.435 -0.654,0.981 -0.739,1.588 C 53.323,39.755 50.775,41 48,41 43.037,41 39,36.962 39,32 Z M 48,43 c 2.919,0 5.63,-1.133 7.67,-3.133 0.345,0.43 0.801,0.76 1.33,0.949 V 49.08 C 53.941,49.521 51.521,51.941 51.08,55 H 44.92 C 44.479,51.941 42.059,49.521 39,49.08 V 38.305 C 40.992,41.139 44.28,43 48,43 Z m -9,8.101 C 40.956,51.5 42.5,53.044 42.899,55 H 39 Z M 53.101,55 C 53.5,53.044 55.044,51.5 57,51.101 V 55 Z M 60,39 h -2 c -0.552,0 -1,-0.449 -1,-1 0,-0.551 0.448,-1 1,-1 h 2 c 0.552,0 1,0.449 1,1 0,0.551 -0.448,1 -1,1 z"
           inkscape:connector-curvature="0" />
        <path
           id="path4811"
           d="m 48,35 c -0.552,0 -1,-0.449 -1,-1 h -2 c 0,1.302 0.839,2.402 2,2.816 V 39 h 2 v -2.184 c 1.161,-0.414 2,-1.514 2,-2.816 0,-1.654 -1.346,-3 -3,-3 -0.552,0 -1,-0.449 -1,-1 0,-0.551 0.448,-1 1,-1 0.552,0 1,0.449 1,1 h 2 c 0,-1.302 -0.839,-2.402 -2,-2.816 V 25 h -2 v 2.184 c -1.161,0.414 -2,1.514 -2,2.816 0,1.654 1.346,3 3,3 0.552,0 1,0.449 1,1 0,0.551 -0.448,1 -1,1 z"
           inkscape:connector-curvature="0" />
        <path
           id="path4813"
           d="m 25,20 c 0,-1.018 -0.512,-1.917 -1.29,-2.459 L 27,15.566 V 15 C 27,12.191 24.989,9.817 22.219,9.356 L 21.956,9.312 22.096,8.681 21.707,8.293 C 21.473,8.058 19.347,6 17,6 14.653,6 12.527,8.058 12.293,8.293 l -0.389,0.388 0.14,0.631 -0.263,0.044 C 9.011,9.817 7,12.191 7,15 v 0.566 l 3.29,1.974 C 9.512,18.083 9,18.982 9,20 c 0,1.654 1.346,3 3,3 h 10 c 1.654,0 3,-1.346 3,-3 z m -3.109,-8.671 c 1.62,0.27 2.841,1.546 3.07,3.128 L 20.723,17 h -0.476 l 1.274,-5.733 z M 17,8 c 1.035,0 2.221,0.793 2.897,1.353 L 18.198,17 h -2.395 l -1.7,-7.647 C 14.779,8.793 15.965,8 17,8 Z m -4.891,3.329 0.37,-0.062 L 13.753,17 H 13.277 L 9.039,14.457 c 0.23,-1.582 1.45,-2.858 3.07,-3.128 z M 11,20 c 0,-0.551 0.448,-1 1,-1 h 10 c 0.552,0 1,0.449 1,1 0,0.551 -0.448,1 -1,1 H 12 c -0.552,0 -1,-0.449 -1,-1 z"
           inkscape:connector-curvature="0" />
        <path
           id="path4815"
           d="m 20.636,49.316 0.729,1.862 C 25.932,49.389 29,44.897 29,40 h -2 c 0,4.081 -2.558,7.825 -6.364,9.316 z"
           inkscape:connector-curvature="0" />
        <path
           id="path4817"
           d="m 17,50 v 2 c 0.732,0 1.467,-0.067 2.182,-0.199 L 18.819,49.834 C 18.224,49.944 17.611,50 17,50 Z"
           inkscape:connector-curvature="0" />
      </g>
    </g>
  </g>
</svg>
