<?xml version="1.0" encoding="UTF-8" standalone="no"?>
<!-- Created with Inkscape (http://www.inkscape.org/) -->

<svg
   xmlns:dc="http://purl.org/dc/elements/1.1/"
   xmlns:cc="http://creativecommons.org/ns#"
   xmlns:rdf="http://www.w3.org/1999/02/22-rdf-syntax-ns#"
   xmlns:svg="http://www.w3.org/2000/svg"
   xmlns="http://www.w3.org/2000/svg"
   xmlns:sodipodi="http://sodipodi.sourceforge.net/DTD/sodipodi-0.dtd"
   xmlns:inkscape="http://www.inkscape.org/namespaces/inkscape"
   width="29.999998mm"
   height="29.999962mm"
   viewBox="0 0 29.999999 29.999962"
   version="1.1"
   id="svg8"
   inkscape:version="0.92.4 (5da689c313, 2019-01-14)"
   sodipodi:docname="strong-icon.svg">
  <defs
     id="defs2" />
  <sodipodi:namedview
     id="base"
     pagecolor="#ffffff"
     bordercolor="#666666"
     borderopacity="1.0"
     inkscape:pageopacity="0.0"
     inkscape:pageshadow="2"
     inkscape:zoom="0.35"
     inkscape:cx="-210.04087"
     inkscape:cy="450.88682"
     inkscape:document-units="mm"
     inkscape:current-layer="layer1"
     showgrid="false"
     inkscape:window-width="1920"
     inkscape:window-height="1017"
     inkscape:window-x="-8"
     inkscape:window-y="-8"
     inkscape:window-maximized="1" />
  <metadata
     id="metadata5">
    <rdf:RDF>
      <cc:Work
         rdf:about="">
        <dc:format>image/svg+xml</dc:format>
        <dc:type
           rdf:resource="http://purl.org/dc/dcmitype/StillImage" />
        <dc:title></dc:title>
      </cc:Work>
    </rdf:RDF>
  </metadata>
  <g
     inkscape:label="Layer 1"
     inkscape:groupmode="layer"
     id="layer1"
     transform="translate(-28.737003,-238.13051)">
    <path
       id="path1020"
       d="m 58.297556,247.83749 c -2.278558,0 -4.38679,0.51275 -6.096764,1.48289 -1.603217,0.90955 -2.783806,2.18344 -3.442974,3.70617 -1.425917,-0.83935 -3.191437,-1.30623 -5.02059,-1.30623 -1.335273,0 -2.614356,0.23883 -3.768811,0.69563 l 0.433294,-3.75434 0.332749,-2.88311 c 0.822527,-0.0776 1.453045,-0.28828 1.934971,-0.55113 l 0.725966,0.89889 c 0.14865,0.1841 0.416361,0.2175 0.605557,0.0755 l 3.882773,-2.91212 c 0.101895,-0.0765 0.165644,-0.19336 0.174666,-0.32045 0.009,-0.12703 -0.03756,-0.25177 -0.127615,-0.34189 l -4.368098,-4.3682 c -0.101366,-0.10136 -0.245856,-0.14666 -0.387182,-0.12199 -0.141033,0.025 -3.445202,0.64506 -5.130099,4.03735 -0.353198,0.29695 -1.835949,1.59638 -3.592915,3.89186 -1.817082,2.37381 -4.275229,6.30527 -5.667455,11.55387 -0.113377,0.4275 -0.02385,0.87357 0.24568,1.22391 0.268881,0.34957 0.676103,0.55008 1.117072,0.55008 h 0.794052 c 0.360288,0.33445 1.422049,1.2532 3.121418,2.17113 0.06639,0.0359 0.137928,0.0528 0.208474,0.0528 0.156267,0 0.307554,-0.0836 0.387006,-0.23062 0.115369,-0.21358 0.03574,-0.48012 -0.177771,-0.59549 -0.955533,-0.51615 -1.700834,-1.03594 -2.215807,-1.43485 0.15492,-0.0679 0.263258,-0.22242 0.263258,-0.40242 0,-0.24275 -0.196755,-0.43945 -0.439446,-0.43945 h -0.970709 -0.970532 c -0.165993,0 -0.319272,-0.0755 -0.420463,-0.20707 -0.101834,-0.13231 -0.135584,-0.30094 -0.09275,-0.46266 1.351562,-5.09532 3.735296,-8.91417 5.497008,-11.22053 0.162419,-0.21258 0.322378,-0.4159 0.4797,-0.61125 l 3.817735,3.40992 -0.395267,3.42481 c -0.127322,0.0681 -0.253356,0.1381 -0.376459,0.21216 -0.208005,0.12504 -0.27527,0.39505 -0.150233,0.60305 0.125096,0.20807 0.395034,0.27533 0.603038,0.15024 1.302754,-0.78323 2.94605,-1.21465 4.627138,-1.21465 2.124226,0 4.143454,0.68062 5.539898,1.86738 0.08261,0.0702 0.183748,0.10459 0.284351,0.10459 0.12451,0 0.24814,-0.0526 0.335093,-0.15492 0.157203,-0.18492 0.134646,-0.46225 -0.05027,-0.6194 -0.110799,-0.0941 -0.225407,-0.18515 -0.342886,-0.27351 1.14473,-2.82815 4.357493,-4.67403 8.354758,-4.80006 v 18.52823 h -2.207896 c -2.397797,0 -4.584894,-1.99025 -5.765597,-5.21918 0.872624,-0.53789 1.657533,-1.19637 2.347757,-1.9708 0.490013,0.81111 0.772313,1.76115 0.772313,2.77594 0,0.24275 0.196695,0.43945 0.439448,0.43945 0.242749,0 0.439445,-0.1967 0.439445,-0.43945 0,-1.39518 -0.458666,-2.68518 -1.232912,-3.72745 -0.01663,-0.028 -0.0365,-0.0544 -0.05971,-0.0787 -1.145902,-1.49309 -2.94775,-2.4576 -4.970962,-2.4576 h -1.941357 c -0.24275,0 -0.439446,0.1967 -0.439446,0.43946 0,0.24275 0.196696,0.43945 0.439446,0.43945 h 1.941357 c 1.631579,0 3.095872,0.72961 4.084158,1.87951 -0.732234,0.85471 -1.578256,1.55748 -2.534669,2.10779 -0.02044,0.009 -0.03961,0.0204 -0.05795,0.0324 -1.972352,1.11715 -4.409875,1.59158 -7.288309,1.41181 -1.978681,-0.12369 -3.901406,-0.5673 -5.714797,-1.31841 -0.224235,-0.0932 -0.481282,0.0136 -0.574152,0.23783 -0.09287,0.22424 0.01359,0.48129 0.237828,0.57416 1.903156,0.78838 3.920625,1.25385 5.996278,1.38363 0.408568,0.0256 0.809461,0.0383 1.203263,0.0383 1.898877,0 3.622739,-0.29661 5.13719,-0.88518 0.343763,-0.1336 0.677097,-0.28272 1.000121,-0.44649 1.324434,3.50661 3.797522,5.66239 6.54125,5.66239 h 2.647342 c 0.242752,0 0.439448,-0.1967 0.439448,-0.43945 V 248.2769 c 0,-0.24275 -0.196756,-0.43945 -0.439448,-0.43945 z m -15.183112,-8.7835 3.836485,3.83654 -3.138234,2.35371 -0.427317,-0.5291 c 0.601338,-0.55969 0.764344,-1.13326 0.776414,-1.17849 0.06252,-0.23455 -0.07623,-0.47772 -0.310777,-0.5403 -0.23443,-0.0623 -0.474602,0.0745 -0.537121,0.30903 -0.01043,0.0357 -0.166696,0.53484 -0.780984,0.97089 -0.01453,0.009 -0.02883,0.019 -0.04248,0.03 -1.17e-4,5e-5 -1.76e-4,1.7e-4 -2.44e-4,2.2e-4 -0.414427,0.28218 -1.027074,0.53215 -1.924951,0.60422 l -1.659058,-2.4886 c 1.266778,-2.40428 3.509421,-3.17936 4.208258,-3.36815 z m -6.941791,6.28272 c 0.929752,-1.08733 1.706694,-1.83428 2.137351,-2.2244 l 1.574801,2.36221 -0.332456,2.88076 z"
       inkscape:connector-curvature="0"
       style="stroke-width:0.05859333" />
  </g>
</svg>
