<?xml version="1.0" encoding="UTF-8" standalone="no"?>
<!-- Created with Inkscape (http://www.inkscape.org/) -->

<svg
   xmlns:dc="http://purl.org/dc/elements/1.1/"
   xmlns:cc="http://creativecommons.org/ns#"
   xmlns:rdf="http://www.w3.org/1999/02/22-rdf-syntax-ns#"
   xmlns:svg="http://www.w3.org/2000/svg"
   xmlns="http://www.w3.org/2000/svg"
   xmlns:sodipodi="http://sodipodi.sourceforge.net/DTD/sodipodi-0.dtd"
   xmlns:inkscape="http://www.inkscape.org/namespaces/inkscape"
   width="30mm"
   height="30mm"
   viewBox="0 0 30 30"
   version="1.1"
   id="svg8"
   inkscape:version="0.92.4 (5da689c313, 2019-01-14)"
   sodipodi:docname="time-icon.svg">
  <defs
     id="defs2" />
  <sodipodi:namedview
     id="base"
     pagecolor="#ffffff"
     bordercolor="#666666"
     borderopacity="1.0"
     inkscape:pageopacity="0.0"
     inkscape:pageshadow="2"
     inkscape:zoom="0.35"
     inkscape:cx="28.476209"
     inkscape:cy="-280.95236"
     inkscape:document-units="mm"
     inkscape:current-layer="layer1"
     showgrid="false"
     inkscape:window-width="1920"
     inkscape:window-height="1017"
     inkscape:window-x="-8"
     inkscape:window-y="-8"
     inkscape:window-maximized="1" />
  <metadata
     id="metadata5">
    <rdf:RDF>
      <cc:Work
         rdf:about="">
        <dc:format>image/svg+xml</dc:format>
        <dc:type
           rdf:resource="http://purl.org/dc/dcmitype/StillImage" />
        <dc:title></dc:title>
      </cc:Work>
    </rdf:RDF>
  </metadata>
  <g
     inkscape:label="Layer 1"
     inkscape:groupmode="layer"
     id="layer1"
     transform="translate(34.37064,-44.498024)">
    <g
       id="g4627"
       transform="matrix(0.05859375,0,0,0.05859375,-34.37064,44.498024)">
      <g
         id="g4609">
        <path
           id="path4607"
           d="m 502,76 v 360 c 0,36.39 -29.61,66 -66,66 H 76 C 39.61,502 10,472.39 10,436 V 76 C 10,39.61 39.61,10 76,10 h 360 c 36.39,0 66,29.61 66,66 z"
           inkscape:connector-curvature="0"
           style="fill:#f3eff0" />
      </g>
      <g
         id="g4625">
        <path
           id="path4611"
           d="m 256,116 c 5.522,0 10,-4.477 10,-10 V 76 c 0,-5.523 -4.478,-10 -10,-10 -5.522,0 -10,4.477 -10,10 v 30 c 0,5.523 4.478,10 10,10 z"
           inkscape:connector-curvature="0" />
        <path
           id="path4613"
           d="m 246,406 v 30 c 0,5.523 4.478,10 10,10 5.522,0 10,-4.477 10,-10 v -30 c 0,-5.523 -4.478,-10 -10,-10 -5.522,0 -10,4.477 -10,10 z"
           inkscape:connector-curvature="0" />
        <path
           id="path4615"
           d="m 76,246 c -5.522,0 -10,4.477 -10,10 0,5.523 4.478,10 10,10 h 30 c 5.522,0 10,-4.477 10,-10 0,-5.523 -4.478,-10 -10,-10 z"
           inkscape:connector-curvature="0" />
        <path
           id="path4617"
           d="m 436,266 c 5.522,0 10,-4.477 10,-10 0,-5.523 -4.478,-10 -10,-10 h -30 c -5.522,0 -10,4.477 -10,10 0,5.523 4.478,10 10,10 z"
           inkscape:connector-curvature="0" />
        <path
           id="path4619"
           d="m 246,246 h -80 c -5.522,0 -10,4.477 -10,10 0,5.523 4.478,10 10,10 h 85.857 l 87.071,87.071 c 3.906,3.905 10.236,3.905 14.143,0 3.905,-3.905 3.905,-10.237 0,-14.143 L 266,251.857 V 166 c 0,-5.523 -4.478,-10 -10,-10 -5.522,0 -10,4.477 -10,10 z"
           inkscape:connector-curvature="0" />
        <circle
           id="circle4621"
           r="10"
           cy="501.99899"
           cx="256" />
        <path
           id="path4623"
           d="M 436,0 H 76 C 34.094,0 0,34.093 0,76 v 360 c 0,41.907 34.094,76 76,76 h 135 c 5.522,0 10,-4.477 10,-10 0,-5.523 -4.478,-10 -10,-10 H 76 C 45.121,492 20,466.878 20,436 V 76 C 20,45.122 45.121,20 76,20 h 360 c 30.879,0 56,25.122 56,56 v 360 c 0,30.878 -25.121,56 -56,56 H 301 c -5.522,0 -10,4.477 -10,10 0,5.523 4.478,10 10,10 h 135 c 41.906,0 76,-34.093 76,-76 V 76 C 512,34.093 477.906,0 436,0 Z"
           inkscape:connector-curvature="0" />
      </g>
    </g>
  </g>
</svg>
