<?xml version="1.0" encoding="UTF-8" standalone="no"?>
<!-- Created with Inkscape (http://www.inkscape.org/) -->

<svg
   xmlns:dc="http://purl.org/dc/elements/1.1/"
   xmlns:cc="http://creativecommons.org/ns#"
   xmlns:rdf="http://www.w3.org/1999/02/22-rdf-syntax-ns#"
   xmlns:svg="http://www.w3.org/2000/svg"
   xmlns="http://www.w3.org/2000/svg"
   xmlns:sodipodi="http://sodipodi.sourceforge.net/DTD/sodipodi-0.dtd"
   xmlns:inkscape="http://www.inkscape.org/namespaces/inkscape"
   width="30mm"
   height="30mm"
   viewBox="0 0 30 30"
   version="1.1"
   id="svg8"
   inkscape:version="0.92.4 (5da689c313, 2019-01-14)"
   sodipodi:docname="unlock-icon.svg">
  <defs
     id="defs2" />
  <sodipodi:namedview
     id="base"
     pagecolor="#ffffff"
     bordercolor="#666666"
     borderopacity="1.0"
     inkscape:pageopacity="0.0"
     inkscape:pageshadow="2"
     inkscape:zoom="0.35"
     inkscape:cx="216.16706"
     inkscape:cy="769.1623"
     inkscape:document-units="mm"
     inkscape:current-layer="layer1"
     showgrid="false"
     inkscape:window-width="1920"
     inkscape:window-height="1017"
     inkscape:window-x="-8"
     inkscape:window-y="-8"
     inkscape:window-maximized="1" />
  <metadata
     id="metadata5">
    <rdf:RDF>
      <cc:Work
         rdf:about="">
        <dc:format>image/svg+xml</dc:format>
        <dc:type
           rdf:resource="http://purl.org/dc/dcmitype/StillImage" />
        <dc:title></dc:title>
      </cc:Work>
    </rdf:RDF>
  </metadata>
  <g
     inkscape:label="Layer 1"
     inkscape:groupmode="layer"
     id="layer1"
     transform="translate(84.030511,-322.34086)">
    <g
       id="g4803"
       transform="matrix(0.078125,0,0,0.05859375,-84.030511,322.34086)">
      <path
         id="path4789"
         d="M 85.332031,234.66797 C 73.535156,234.66797 64,225.10937 64,213.33203 V 128 C 64,57.40625 121.40625,0 192,0 c 70.59375,0 128,57.40625 128,128 0,11.77734 -9.53516,21.33203 -21.33203,21.33203 -11.79688,0 -21.33594,-9.55469 -21.33594,-21.33203 0,-47.0625 -38.26953,-85.332031 -85.33203,-85.332031 -47.0625,0 -85.33203,38.269531 -85.33203,85.332031 v 85.33203 c 0,11.77734 -9.539064,21.33594 -21.335939,21.33594 z m 0,0"
         inkscape:connector-curvature="0"
         style="fill:#607d8b" />
      <path
         id="path4791"
         d="M 336,192 H 48 C 21.546875,192 0,213.52344 0,240 v 224 c 0,26.47656 21.546875,48 48,48 h 288 c 26.45312,0 48,-21.52344 48,-48 V 240 c 0,-26.47656 -21.54688,-48 -48,-48 z m 0,0"
         inkscape:connector-curvature="0"
         style="fill:#ffc107" />
    </g>
  </g>
</svg>
