<?xml version="1.0" encoding="UTF-8" standalone="no"?>
<!-- Created with Inkscape (http://www.inkscape.org/) -->

<svg
   xmlns:dc="http://purl.org/dc/elements/1.1/"
   xmlns:cc="http://creativecommons.org/ns#"
   xmlns:rdf="http://www.w3.org/1999/02/22-rdf-syntax-ns#"
   xmlns:svg="http://www.w3.org/2000/svg"
   xmlns="http://www.w3.org/2000/svg"
   xmlns:sodipodi="http://sodipodi.sourceforge.net/DTD/sodipodi-0.dtd"
   xmlns:inkscape="http://www.inkscape.org/namespaces/inkscape"
   width="40mm"
   height="40mm"
   viewBox="0 0 40 40"
   version="1.1"
   id="svg8"
   inkscape:version="0.92.4 (5da689c313, 2019-01-14)"
   sodipodi:docname="video-icon.svg">
  <defs
     id="defs2" />
  <sodipodi:namedview
     id="base"
     pagecolor="#ffffff"
     bordercolor="#666666"
     borderopacity="1.0"
     inkscape:pageopacity="0.0"
     inkscape:pageshadow="2"
     inkscape:zoom="0.35"
     inkscape:cx="375.33336"
     inkscape:cy="265.90479"
     inkscape:document-units="mm"
     inkscape:current-layer="layer1"
     showgrid="false"
     inkscape:window-width="1920"
     inkscape:window-height="1017"
     inkscape:window-x="-8"
     inkscape:window-y="-8"
     inkscape:window-maximized="1" />
  <metadata
     id="metadata5">
    <rdf:RDF>
      <cc:Work
         rdf:about="">
        <dc:format>image/svg+xml</dc:format>
        <dc:type
           rdf:resource="http://purl.org/dc/dcmitype/StillImage" />
        <dc:title></dc:title>
      </cc:Work>
    </rdf:RDF>
  </metadata>
  <g
     inkscape:label="Layer 1"
     inkscape:groupmode="layer"
     id="layer1"
     transform="translate(126.14326,-179.18731)">
    <g
       id="g4605"
       transform="matrix(0.078125,0,0,0.078125,-126.14326,179.18731)">
      <path
         id="path4591"
         d="M 224.11328,303.96094 307.38672,256 224.11328,208.03906 Z m 0,0"
         inkscape:connector-curvature="0" />
      <path
         id="path4593"
         d="M 475.07422,0 H 36.925781 C 16.53125,0 0,16.53125 0,36.925781 V 475.07422 C 0,495.46875 16.53125,512 36.925781,512 H 475.07422 C 495.46875,512 512,495.46875 512,475.07422 V 36.925781 C 512,16.53125 495.46875,0 475.07422,0 Z m -59.11328,256.26172 c 0,0 0,51.91797 -6.58594,76.95312 -3.69141,13.70313 -14.49609,24.50782 -28.19922,28.19532 C 356.14062,368 256,368 256,368 c 0,0 -99.87891,0 -125.17578,-6.85156 -13.70313,-3.6875 -24.50781,-14.4961 -28.19922,-28.19922 C 96.035156,308.17969 96.035156,256 96.035156,256 c 0,0 0,-51.91406 6.589844,-76.94922 3.6875,-13.70312 14.75781,-24.77344 28.19922,-28.46094 C 155.85937,144 256,144 256,144 c 0,0 100.14062,0 125.17578,6.85156 13.70313,3.6875 24.50781,14.4961 28.19922,28.19922 6.85156,25.03516 6.58594,77.21094 6.58594,77.21094 z m 0,0"
         inkscape:connector-curvature="0" />
    </g>
  </g>
</svg>
