<?xml version="1.0" encoding="UTF-8" standalone="no"?>
<!-- Created with Inkscape (http://www.inkscape.org/) -->

<svg
   xmlns:dc="http://purl.org/dc/elements/1.1/"
   xmlns:cc="http://creativecommons.org/ns#"
   xmlns:rdf="http://www.w3.org/1999/02/22-rdf-syntax-ns#"
   xmlns:svg="http://www.w3.org/2000/svg"
   xmlns="http://www.w3.org/2000/svg"
   xmlns:sodipodi="http://sodipodi.sourceforge.net/DTD/sodipodi-0.dtd"
   xmlns:inkscape="http://www.inkscape.org/namespaces/inkscape"
   width="51.687786mm"
   height="35.461601mm"
   viewBox="0 0 51.687786 35.461601"
   version="1.1"
   id="svg8"
   inkscape:version="0.92.4 (5da689c313, 2019-01-14)"
   sodipodi:docname="youtube-icon.svg">
  <defs
     id="defs2" />
  <sodipodi:namedview
     id="base"
     pagecolor="#ffffff"
     bordercolor="#666666"
     borderopacity="1.0"
     inkscape:pageopacity="0.0"
     inkscape:pageshadow="2"
     inkscape:zoom="0.35"
     inkscape:cx="-293.69718"
     inkscape:cy="402.49535"
     inkscape:document-units="mm"
     inkscape:current-layer="layer1"
     showgrid="false"
     inkscape:window-width="1920"
     inkscape:window-height="1017"
     inkscape:window-x="-8"
     inkscape:window-y="-8"
     inkscape:window-maximized="1" />
  <metadata
     id="metadata5">
    <rdf:RDF>
      <cc:Work
         rdf:about="">
        <dc:format>image/svg+xml</dc:format>
        <dc:type
           rdf:resource="http://purl.org/dc/dcmitype/StillImage" />
        <dc:title></dc:title>
      </cc:Work>
    </rdf:RDF>
  </metadata>
  <g
     inkscape:label="Layer 1"
     inkscape:groupmode="layer"
     id="layer1"
     transform="translate(-219.1763,-291.75637)">
    <path
       id="path1498"
       d="m 269.79913,297.30526 c -0.59562,-2.16979 -2.34147,-3.88021 -4.5555,-4.46446 -4.04474,-1.08443 -20.22402,-1.08443 -20.22402,-1.08443 0,0 -16.17865,0 -20.22339,1.04331 -2.17143,0.58364 -3.95988,2.3361 -4.5555,4.50558 -1.06442,3.96305 -1.06442,12.18191 -1.06442,12.18191 0,0 0,8.26028 1.06442,12.18191 0.59625,2.16947 2.34148,3.87989 4.55581,4.46415 4.08702,1.08474 20.22371,1.08474 20.22371,1.08474 0,0 16.17865,0 20.22339,-1.04332 2.21434,-0.58394 3.95988,-2.29436 4.55613,-4.46384 1.06411,-3.96336 1.06411,-12.18191 1.06411,-12.18191 0,0 0.0426,-8.26059 -1.06474,-12.22364 z m -29.93064,19.77477 V 301.8943 l 13.45387,7.59287 z m 0,0"
       inkscape:connector-curvature="0"
       style="stroke-width:0.07994575" />
  </g>
</svg>
